<?xml version="1.0" encoding="UTF-8"?>
<svg xmlns="http://www.w3.org/2000/svg" xmlns:xlink="http://www.w3.org/1999/xlink" width="72" height="72" viewBox="0 0 375 374.999991" version="1.2">
<defs>
<clipPath id="clip1">
  <path d="M 46 79.417969 L 330 79.417969 L 330 295.417969 L 46 295.417969 Z M 46 79.417969 "/>
</clipPath>
</defs>
<g id="surface1">
<path style=" stroke:none;fill-rule:nonzero;fill:rgb(0%,29.019165%,67.83905%);fill-opacity:1;" d="M 187.5 0 C 184.429688 0 181.363281 0.0742188 178.300781 0.226562 C 175.234375 0.375 172.175781 0.601562 169.121094 0.902344 C 166.066406 1.203125 163.023438 1.578125 159.988281 2.03125 C 156.953125 2.480469 153.929688 3.003906 150.921875 3.601562 C 147.910156 4.203125 144.917969 4.875 141.941406 5.617188 C 138.964844 6.363281 136.007812 7.183594 133.070312 8.074219 C 130.136719 8.964844 127.222656 9.925781 124.332031 10.960938 C 121.445312 11.996094 118.582031 13.097656 115.746094 14.273438 C 112.910156 15.445312 110.105469 16.691406 107.332031 18.003906 C 104.558594 19.3125 101.820312 20.691406 99.113281 22.140625 C 96.40625 23.585938 93.738281 25.097656 91.105469 26.675781 C 88.472656 28.253906 85.882812 29.894531 83.332031 31.597656 C 80.777344 33.304688 78.269531 35.070312 75.804688 36.898438 C 73.339844 38.726562 70.921875 40.613281 68.550781 42.558594 C 66.179688 44.507812 63.855469 46.511719 61.582031 48.570312 C 59.308594 50.632812 57.085938 52.746094 54.917969 54.917969 C 52.746094 57.085938 50.632812 59.308594 48.570312 61.582031 C 46.511719 63.855469 44.507812 66.179688 42.558594 68.550781 C 40.613281 70.921875 38.726562 73.339844 36.898438 75.804688 C 35.070312 78.269531 33.304688 80.777344 31.597656 83.332031 C 29.894531 85.882812 28.253906 88.472656 26.675781 91.105469 C 25.097656 93.738281 23.585938 96.40625 22.140625 99.113281 C 20.691406 101.820312 19.3125 104.558594 18.003906 107.332031 C 16.691406 110.105469 15.445312 112.910156 14.273438 115.746094 C 13.097656 118.582031 11.996094 121.445312 10.960938 124.332031 C 9.925781 127.222656 8.964844 130.136719 8.074219 133.070312 C 7.183594 136.007812 6.363281 138.964844 5.621094 141.941406 C 4.875 144.917969 4.203125 147.910156 3.601562 150.921875 C 3.003906 153.929688 2.480469 156.953125 2.03125 159.988281 C 1.578125 163.023438 1.203125 166.066406 0.902344 169.121094 C 0.601562 172.175781 0.375 175.234375 0.226562 178.300781 C 0.0742188 181.363281 0 184.429688 0 187.5 C 0 190.570312 0.0742188 193.636719 0.226562 196.699219 C 0.375 199.765625 0.601562 202.824219 0.902344 205.878906 C 1.203125 208.933594 1.578125 211.976562 2.03125 215.011719 C 2.480469 218.046875 3.003906 221.070312 3.601562 224.078125 C 4.203125 227.089844 4.875 230.082031 5.621094 233.058594 C 6.363281 236.035156 7.183594 238.992188 8.074219 241.929688 C 8.964844 244.863281 9.925781 247.777344 10.960938 250.667969 C 11.996094 253.554688 13.097656 256.417969 14.273438 259.253906 C 15.445312 262.089844 16.691406 264.890625 18.003906 267.667969 C 19.3125 270.441406 20.691406 273.179688 22.140625 275.886719 C 23.585938 278.59375 25.097656 281.261719 26.675781 283.894531 C 28.253906 286.527344 29.894531 289.117188 31.597656 291.667969 C 33.304688 294.222656 35.070312 296.730469 36.898438 299.195312 C 38.726562 301.660156 40.613281 304.078125 42.558594 306.449219 C 44.507812 308.820312 46.511719 311.144531 48.570312 313.417969 C 50.632812 315.691406 52.746094 317.914062 54.917969 320.082031 C 57.085938 322.253906 59.308594 324.367188 61.582031 326.429688 C 63.855469 328.488281 66.179688 330.492188 68.550781 332.4375 C 70.921875 334.386719 73.339844 336.273438 75.804688 338.101562 C 78.269531 339.929688 80.777344 341.695312 83.332031 343.402344 C 85.882812 345.105469 88.472656 346.746094 91.105469 348.324219 C 93.738281 349.902344 96.40625 351.414062 99.113281 352.859375 C 101.820312 354.308594 104.558594 355.6875 107.332031 356.996094 C 110.105469 358.308594 112.910156 359.554688 115.746094 360.726562 C 118.582031 361.902344 121.445312 363.003906 124.332031 364.039062 C 127.222656 365.074219 130.136719 366.035156 133.070312 366.925781 C 136.007812 367.816406 138.964844 368.636719 141.941406 369.378906 C 144.917969 370.125 147.910156 370.796875 150.921875 371.398438 C 153.929688 371.996094 156.953125 372.519531 159.988281 372.96875 C 163.023438 373.421875 166.066406 373.796875 169.121094 374.097656 C 172.175781 374.398438 175.234375 374.625 178.300781 374.773438 C 181.363281 374.925781 184.429688 375 187.5 375 C 190.570312 375 193.636719 374.925781 196.699219 374.773438 C 199.765625 374.625 202.824219 374.398438 205.878906 374.097656 C 208.933594 373.796875 211.976562 373.421875 215.011719 372.96875 C 218.046875 372.519531 221.070312 371.996094 224.078125 371.398438 C 227.089844 370.796875 230.082031 370.125 233.058594 369.378906 C 236.035156 368.636719 238.992188 367.816406 241.929688 366.925781 C 244.863281 366.035156 247.777344 365.074219 250.667969 364.039062 C 253.554688 363.003906 256.417969 361.902344 259.253906 360.726562 C 262.089844 359.554688 264.890625 358.308594 267.667969 356.996094 C 270.441406 355.6875 273.179688 354.308594 275.886719 352.859375 C 278.59375 351.414062 281.261719 349.902344 283.894531 348.324219 C 286.527344 346.746094 289.117188 345.105469 291.667969 343.402344 C 294.222656 341.695312 296.730469 339.929688 299.195312 338.101562 C 301.660156 336.273438 304.078125 334.386719 306.449219 332.4375 C 308.820312 330.492188 311.144531 328.488281 313.417969 326.429688 C 315.691406 324.367188 317.914062 322.253906 320.082031 320.082031 C 322.253906 317.914062 324.367188 315.691406 326.429688 313.417969 C 328.488281 311.144531 330.492188 308.820312 332.4375 306.449219 C 334.386719 304.078125 336.273438 301.660156 338.101562 299.195312 C 339.929688 296.730469 341.695312 294.222656 343.402344 291.667969 C 345.105469 289.117188 346.746094 286.527344 348.324219 283.894531 C 349.902344 281.261719 351.414062 278.59375 352.859375 275.886719 C 354.308594 273.179688 355.6875 270.441406 356.996094 267.667969 C 358.308594 264.890625 359.554688 262.089844 360.726562 259.253906 C 361.902344 256.417969 363.003906 253.554688 364.039062 250.667969 C 365.074219 247.777344 366.035156 244.863281 366.925781 241.929688 C 367.816406 238.992188 368.636719 236.035156 369.378906 233.058594 C 370.125 230.082031 370.796875 227.089844 371.398438 224.078125 C 371.996094 221.070312 372.519531 218.046875 372.96875 215.011719 C 373.421875 211.976562 373.796875 208.933594 374.097656 205.878906 C 374.398438 202.824219 374.625 199.765625 374.773438 196.699219 C 374.925781 193.636719 375 190.570312 375 187.5 C 375 184.429688 374.925781 181.363281 374.773438 178.300781 C 374.625 175.234375 374.398438 172.175781 374.097656 169.121094 C 373.796875 166.066406 373.421875 163.023438 372.96875 159.988281 C 372.519531 156.953125 371.996094 153.929688 371.398438 150.921875 C 370.796875 147.910156 370.125 144.917969 369.378906 141.941406 C 368.636719 138.964844 367.816406 136.007812 366.925781 133.070312 C 366.035156 130.136719 365.074219 127.222656 364.039062 124.332031 C 363.003906 121.445312 361.902344 118.582031 360.726562 115.746094 C 359.554688 112.910156 358.308594 110.105469 356.996094 107.332031 C 355.6875 104.558594 354.308594 101.820312 352.859375 99.113281 C 351.414062 96.40625 349.902344 93.738281 348.324219 91.105469 C 346.746094 88.472656 345.105469 85.882812 343.402344 83.332031 C 341.695312 80.777344 339.929688 78.269531 338.101562 75.804688 C 336.273438 73.339844 334.386719 70.921875 332.4375 68.550781 C 330.492188 66.179688 328.488281 63.855469 326.429688 61.582031 C 324.367188 59.308594 322.253906 57.085938 320.082031 54.917969 C 317.914062 52.746094 315.691406 50.632812 313.417969 48.570312 C 311.144531 46.511719 308.820312 44.507812 306.449219 42.558594 C 304.078125 40.613281 301.660156 38.726562 299.195312 36.898438 C 296.730469 35.070312 294.222656 33.304688 291.667969 31.597656 C 289.117188 29.894531 286.527344 28.253906 283.894531 26.675781 C 281.261719 25.097656 278.59375 23.585938 275.886719 22.140625 C 273.179688 20.691406 270.441406 19.3125 267.667969 18.003906 C 264.890625 16.691406 262.089844 15.445312 259.253906 14.273438 C 256.417969 13.097656 253.554688 11.996094 250.667969 10.960938 C 247.777344 9.925781 244.863281 8.964844 241.929688 8.074219 C 238.992188 7.183594 236.035156 6.363281 233.058594 5.617188 C 230.082031 4.875 227.089844 4.203125 224.078125 3.601562 C 221.070312 3.003906 218.046875 2.480469 215.011719 2.03125 C 211.976562 1.578125 208.933594 1.203125 205.878906 0.902344 C 202.824219 0.601562 199.765625 0.375 196.699219 0.226562 C 193.636719 0.0742188 190.570312 0 187.5 0 Z M 187.5 0 "/>
<path style=" stroke:none;fill-rule:nonzero;fill:rgb(100%,100%,100%);fill-opacity:1;" d="M 253.039062 194.230469 C 236.328125 194.230469 222.683594 180.605469 222.683594 163.910156 C 222.683594 147.214844 236.328125 133.589844 253.039062 133.589844 C 269.753906 133.589844 283.394531 147.214844 283.394531 163.910156 C 283.394531 180.605469 269.753906 194.230469 253.039062 194.230469 Z M 253.039062 140.402344 C 240.078125 140.402344 229.503906 150.964844 229.503906 163.910156 C 229.503906 176.855469 240.078125 187.417969 253.039062 187.417969 C 266 187.417969 276.574219 176.855469 276.574219 163.910156 C 276.574219 150.964844 266 140.402344 253.039062 140.402344 Z M 253.039062 140.402344 "/>
<path style=" stroke:none;fill-rule:nonzero;fill:rgb(100%,100%,100%);fill-opacity:1;" d="M 308.636719 237.5 L 285.78125 196.617188 C 288.171875 195.933594 290.558594 194.914062 292.261719 192.527344 C 294.308594 189.460938 294.308594 185.714844 293.96875 182.308594 C 293.96875 180.261719 293.628906 178.558594 293.96875 177.195312 C 294.308594 176.175781 295.675781 174.472656 296.695312 173.109375 C 298.742188 170.382812 301.472656 167.65625 301.472656 163.570312 C 301.472656 159.480469 299.085938 156.753906 296.695312 154.03125 C 295.675781 152.667969 294.308594 151.304688 293.96875 149.941406 C 293.628906 148.578125 293.628906 146.875 293.96875 144.832031 C 294.308594 141.425781 294.308594 137.675781 292.261719 134.609375 C 289.875 131.542969 286.464844 130.523438 283.054688 129.839844 C 281.347656 129.5 279.300781 128.816406 278.277344 128.136719 C 277.253906 127.457031 276.234375 125.753906 275.210938 124.046875 C 273.503906 121.324219 271.457031 117.914062 267.707031 116.894531 C 264.292969 115.871094 260.882812 117.234375 257.8125 118.257812 C 256.109375 118.9375 254.0625 119.621094 252.699219 119.621094 C 251.332031 119.621094 249.628906 118.9375 247.582031 118.257812 C 244.511719 116.894531 241.101562 115.53125 237.691406 116.894531 C 233.9375 117.914062 231.890625 121.324219 230.1875 124.046875 C 229.164062 125.753906 228.140625 127.113281 227.117188 128.136719 C 226.09375 128.816406 224.046875 129.5 222.34375 129.839844 C 218.929688 130.523438 215.519531 131.542969 213.132812 134.609375 C 211.085938 137.675781 211.085938 141.425781 211.425781 144.832031 C 211.425781 146.875 211.769531 148.578125 211.425781 149.941406 C 211.085938 150.964844 209.722656 152.667969 208.699219 154.03125 C 206.652344 156.753906 203.921875 159.480469 203.921875 163.570312 C 203.921875 167.316406 206.3125 170.382812 208.699219 173.109375 C 209.722656 174.472656 211.085938 175.832031 211.425781 177.195312 C 211.769531 178.558594 211.769531 180.261719 211.425781 182.308594 C 211.085938 185.714844 211.085938 189.460938 213.132812 192.527344 C 215.179688 195.253906 218.25 196.277344 221.320312 196.957031 L 198.808594 237.5 C 198.125 238.523438 198.125 239.882812 198.808594 240.90625 C 199.488281 241.929688 200.511719 242.609375 201.878906 242.609375 L 216.542969 241.589844 L 223.367188 254.535156 C 224.046875 255.554688 225.070312 256.238281 226.433594 256.238281 C 227.800781 256.238281 228.824219 255.554688 229.503906 254.535156 L 254.0625 211.265625 L 277.9375 254.195312 C 278.621094 255.214844 279.644531 255.898438 281.007812 255.898438 C 282.371094 255.898438 283.394531 255.214844 284.078125 254.195312 L 290.898438 241.246094 L 305.566406 242.269531 C 306.929688 242.269531 307.953125 241.589844 308.636719 240.566406 C 309.316406 239.882812 309.316406 238.523438 308.636719 237.5 Z M 218.589844 182.648438 C 218.589844 180.261719 218.929688 177.539062 218.25 175.152344 C 217.566406 172.769531 215.863281 170.722656 214.15625 169.019531 C 212.792969 167.316406 211.085938 165.273438 211.085938 163.910156 C 211.085938 162.546875 212.792969 160.503906 214.15625 158.800781 C 215.863281 156.753906 217.566406 155.050781 218.25 152.667969 C 218.929688 150.28125 218.929688 147.554688 218.589844 145.171875 C 218.589844 142.785156 218.25 140.402344 218.929688 139.378906 C 219.613281 138.359375 222 137.675781 224.046875 137.335938 C 226.433594 136.652344 229.164062 135.972656 231.210938 134.609375 C 233.257812 133.246094 234.621094 130.863281 235.984375 128.816406 C 237.347656 126.773438 238.371094 124.730469 239.738281 124.390625 C 240.078125 124.390625 240.078125 124.390625 240.417969 124.390625 C 241.785156 124.390625 243.488281 125.070312 245.195312 125.75 C 247.582031 126.773438 249.96875 127.796875 252.699219 127.796875 C 255.425781 127.796875 257.8125 126.773438 260.203125 125.75 C 262.25 125.070312 264.292969 124.046875 265.660156 124.390625 C 267.023438 124.730469 268.046875 126.773438 269.410156 128.816406 C 270.773438 130.863281 272.140625 133.246094 274.1875 134.609375 C 276.234375 135.972656 278.960938 136.652344 281.347656 137.335938 C 283.734375 138.015625 285.78125 138.359375 286.464844 139.378906 C 287.148438 140.402344 287.148438 142.785156 286.804688 145.171875 C 286.804688 147.554688 286.464844 150.28125 287.148438 152.667969 C 287.828125 155.050781 289.535156 157.097656 291.238281 158.800781 C 292.605469 160.503906 294.308594 162.546875 294.308594 163.910156 C 294.308594 165.273438 292.605469 167.316406 291.238281 169.019531 C 289.535156 171.0625 287.828125 172.769531 287.148438 175.152344 C 286.464844 177.539062 286.464844 180.261719 286.804688 182.648438 C 286.804688 185.03125 287.148438 187.417969 286.464844 188.441406 C 285.78125 189.460938 283.394531 190.144531 281.347656 190.484375 C 278.960938 191.164062 276.234375 191.847656 274.1875 193.210938 C 272.140625 194.570312 270.773438 196.957031 269.410156 199 C 268.046875 201.046875 267.023438 203.089844 265.660156 203.429688 C 264.636719 203.769531 262.25 202.75 260.203125 202.066406 C 258.496094 201.386719 256.449219 200.703125 254.746094 200.363281 C 254.0625 200.363281 253.378906 200.023438 252.699219 200.023438 C 249.96875 200.023438 247.582031 201.046875 245.195312 202.066406 C 243.148438 202.75 241.101562 203.769531 239.738281 203.429688 C 238.371094 203.089844 237.347656 201.046875 235.984375 199 C 234.621094 196.957031 233.257812 194.570312 231.210938 193.210938 C 229.164062 191.847656 226.433594 191.164062 224.046875 190.484375 C 221.660156 189.800781 219.613281 189.460938 218.929688 188.441406 C 218.25 187.417969 218.589844 185.03125 218.589844 182.648438 Z M 227.117188 245.675781 L 222 236.476562 C 221.320312 235.457031 219.953125 234.773438 218.929688 234.773438 L 208.359375 235.113281 L 228.140625 199.34375 C 228.824219 200.023438 229.847656 201.386719 230.527344 202.75 C 232.234375 205.472656 234.28125 208.882812 238.03125 209.902344 C 239.054688 210.242188 239.738281 210.242188 240.761719 210.242188 C 243.148438 210.242188 245.875 209.222656 247.921875 208.199219 Z M 289.195312 234.433594 C 287.828125 234.433594 286.464844 235.113281 286.125 236.136719 L 281.007812 245.335938 L 261.226562 209.5625 C 263.269531 210.242188 265.660156 210.585938 268.046875 209.902344 C 271.796875 208.882812 273.84375 205.472656 275.550781 202.75 C 276.574219 201.046875 277.597656 199.683594 278.621094 198.660156 C 278.960938 198.320312 279.300781 198.320312 279.644531 198.320312 L 300.109375 235.113281 Z M 289.195312 234.433594 "/>
<g clip-path="url(#clip1)" clip-rule="nonzero">
<path style=" stroke:none;fill-rule:nonzero;fill:rgb(100%,100%,100%);fill-opacity:1;" d="M 314.433594 295.417969 L 60.671875 295.417969 C 52.484375 295.417969 46.003906 288.945312 46.003906 280.769531 L 46.003906 94.066406 C 46.003906 85.890625 52.484375 79.417969 60.671875 79.417969 L 314.433594 79.417969 C 322.621094 79.417969 329.101562 85.890625 329.101562 94.066406 L 329.101562 280.769531 C 329.101562 288.605469 322.277344 295.417969 314.433594 295.417969 Z M 60.671875 86.230469 C 56.238281 86.230469 52.824219 89.636719 52.824219 94.066406 L 52.824219 280.769531 C 52.824219 285.195312 56.238281 288.605469 60.671875 288.605469 L 314.433594 288.605469 C 318.867188 288.605469 322.277344 285.195312 322.277344 280.769531 L 322.277344 94.066406 C 322.277344 89.636719 318.867188 86.230469 314.433594 86.230469 Z M 60.671875 86.230469 "/>
</g>
<path style=" stroke:none;fill-rule:nonzero;fill:rgb(100%,100%,100%);fill-opacity:1;" d="M 302.496094 281.109375 L 73.632812 281.109375 C 66.46875 281.109375 60.671875 275.316406 60.671875 268.160156 L 60.671875 106.671875 C 60.671875 99.519531 66.46875 93.726562 73.632812 93.726562 L 302.496094 93.726562 C 309.660156 93.726562 315.457031 99.519531 315.457031 106.671875 L 315.457031 268.160156 C 315.457031 275.316406 309.660156 281.109375 302.496094 281.109375 Z M 73.632812 97.132812 C 68.515625 97.132812 64.082031 101.5625 64.082031 106.671875 L 64.082031 268.160156 C 64.082031 273.273438 68.515625 277.703125 73.632812 277.703125 L 302.496094 277.703125 C 307.613281 277.703125 312.046875 273.273438 312.046875 268.160156 L 312.046875 106.671875 C 312.046875 101.5625 307.613281 97.132812 302.496094 97.132812 Z M 73.632812 97.132812 "/>
<path style=" stroke:none;fill-rule:nonzero;fill:rgb(100%,100%,100%);fill-opacity:1;" d="M 196.078125 130.179688 L 85.570312 130.179688 C 83.523438 130.179688 82.160156 128.816406 82.160156 126.773438 C 82.160156 124.730469 83.523438 123.367188 85.570312 123.367188 L 195.738281 123.367188 C 197.785156 123.367188 199.148438 124.730469 199.148438 126.773438 C 199.148438 128.816406 197.785156 130.179688 196.078125 130.179688 Z M 196.078125 130.179688 "/>
<path style=" stroke:none;fill-rule:nonzero;fill:rgb(100%,100%,100%);fill-opacity:1;" d="M 183.460938 215.355469 L 85.570312 215.355469 C 83.523438 215.355469 82.160156 213.992188 82.160156 211.949219 C 82.160156 209.902344 83.523438 208.539062 85.570312 208.539062 L 183.460938 208.539062 C 185.503906 208.539062 186.871094 209.902344 186.871094 211.949219 C 186.871094 213.992188 185.503906 215.355469 183.460938 215.355469 Z M 183.460938 215.355469 "/>
<path style=" stroke:none;fill-rule:nonzero;fill:rgb(100%,100%,100%);fill-opacity:1;" d="M 183.460938 176.175781 L 85.570312 176.175781 C 83.523438 176.175781 82.160156 174.8125 82.160156 172.769531 C 82.160156 170.722656 83.523438 169.359375 85.570312 169.359375 L 183.460938 169.359375 C 185.503906 169.359375 186.871094 170.722656 186.871094 172.769531 C 186.871094 174.8125 185.503906 176.175781 183.460938 176.175781 Z M 183.460938 176.175781 "/>
<path style=" stroke:none;fill-rule:nonzero;fill:rgb(100%,100%,100%);fill-opacity:1;" d="M 137.414062 241.246094 L 85.570312 241.246094 C 83.523438 241.246094 82.160156 239.882812 82.160156 237.839844 C 82.160156 235.796875 83.523438 234.433594 85.570312 234.433594 L 137.414062 234.433594 C 139.460938 234.433594 140.824219 235.796875 140.824219 237.839844 C 140.824219 239.882812 139.460938 241.246094 137.414062 241.246094 Z M 137.414062 241.246094 "/>
</g>
</svg>
