<?xml version="1.0" encoding="UTF-8"?>
<svg xmlns="http://www.w3.org/2000/svg" xmlns:xlink="http://www.w3.org/1999/xlink" width="72" height="72" viewBox="0 0 375 374.999991" version="1.2">
<defs>
<clipPath id="clip1">
  <path d="M 210 215 L 308 215 L 308 285.535156 L 210 285.535156 Z M 210 215 "/>
</clipPath>
<clipPath id="clip2">
  <path d="M 44.851562 215 L 298 215 L 298 240 L 44.851562 240 Z M 44.851562 215 "/>
</clipPath>
<clipPath id="clip3">
  <path d="M 44.851562 239 L 221 239 L 221 285.535156 L 44.851562 285.535156 Z M 44.851562 239 "/>
</clipPath>
<clipPath id="clip4">
  <path d="M 74 124 L 329.851562 124 L 329.851562 132 L 74 132 Z M 74 124 "/>
</clipPath>
<clipPath id="clip5">
  <path d="M 234 124 L 329.851562 124 L 329.851562 183 L 234 183 Z M 234 124 "/>
</clipPath>
<clipPath id="clip6">
  <path d="M 242 128 L 329.851562 128 L 329.851562 179 L 242 179 Z M 242 128 "/>
</clipPath>
<clipPath id="clip7">
  <path d="M 116 89.785156 L 301 89.785156 L 301 96 L 116 96 Z M 116 89.785156 "/>
</clipPath>
<clipPath id="clip8">
  <path d="M 231 89.785156 L 301 89.785156 L 301 132 L 231 132 Z M 231 89.785156 "/>
</clipPath>
</defs>
<g id="surface1">
<path style=" stroke:none;fill-rule:nonzero;fill:rgb(0%,29.019165%,67.83905%);fill-opacity:1;" d="M 187.5 0 C 184.429688 0 181.363281 0.0742188 178.300781 0.226562 C 175.234375 0.375 172.175781 0.601562 169.121094 0.902344 C 166.066406 1.203125 163.023438 1.578125 159.988281 2.03125 C 156.953125 2.480469 153.929688 3.003906 150.921875 3.601562 C 147.910156 4.203125 144.917969 4.875 141.941406 5.617188 C 138.964844 6.363281 136.007812 7.183594 133.070312 8.074219 C 130.136719 8.964844 127.222656 9.925781 124.332031 10.960938 C 121.445312 11.996094 118.582031 13.097656 115.746094 14.273438 C 112.910156 15.445312 110.105469 16.691406 107.332031 18.003906 C 104.558594 19.3125 101.820312 20.691406 99.113281 22.140625 C 96.40625 23.585938 93.738281 25.097656 91.105469 26.675781 C 88.472656 28.253906 85.882812 29.894531 83.332031 31.597656 C 80.777344 33.304688 78.269531 35.070312 75.804688 36.898438 C 73.339844 38.726562 70.921875 40.613281 68.550781 42.558594 C 66.179688 44.507812 63.855469 46.511719 61.582031 48.570312 C 59.308594 50.632812 57.085938 52.746094 54.917969 54.917969 C 52.746094 57.085938 50.632812 59.308594 48.570312 61.582031 C 46.511719 63.855469 44.507812 66.179688 42.558594 68.550781 C 40.613281 70.921875 38.726562 73.339844 36.898438 75.804688 C 35.070312 78.269531 33.304688 80.777344 31.597656 83.332031 C 29.894531 85.882812 28.253906 88.472656 26.675781 91.105469 C 25.097656 93.738281 23.585938 96.40625 22.140625 99.113281 C 20.691406 101.820312 19.3125 104.558594 18.003906 107.332031 C 16.691406 110.105469 15.445312 112.910156 14.273438 115.746094 C 13.097656 118.582031 11.996094 121.445312 10.960938 124.332031 C 9.925781 127.222656 8.964844 130.136719 8.074219 133.070312 C 7.183594 136.007812 6.363281 138.964844 5.621094 141.941406 C 4.875 144.917969 4.203125 147.910156 3.601562 150.921875 C 3.003906 153.929688 2.480469 156.953125 2.03125 159.988281 C 1.578125 163.023438 1.203125 166.066406 0.902344 169.121094 C 0.601562 172.175781 0.375 175.234375 0.226562 178.300781 C 0.0742188 181.363281 0 184.429688 0 187.5 C 0 190.570312 0.0742188 193.636719 0.226562 196.699219 C 0.375 199.765625 0.601562 202.824219 0.902344 205.878906 C 1.203125 208.933594 1.578125 211.976562 2.03125 215.011719 C 2.480469 218.046875 3.003906 221.070312 3.601562 224.078125 C 4.203125 227.089844 4.875 230.082031 5.621094 233.058594 C 6.363281 236.035156 7.183594 238.992188 8.074219 241.929688 C 8.964844 244.863281 9.925781 247.777344 10.960938 250.667969 C 11.996094 253.554688 13.097656 256.417969 14.273438 259.253906 C 15.445312 262.089844 16.691406 264.890625 18.003906 267.667969 C 19.3125 270.441406 20.691406 273.179688 22.140625 275.886719 C 23.585938 278.59375 25.097656 281.261719 26.675781 283.894531 C 28.253906 286.527344 29.894531 289.117188 31.597656 291.667969 C 33.304688 294.222656 35.070312 296.730469 36.898438 299.195312 C 38.726562 301.660156 40.613281 304.078125 42.558594 306.449219 C 44.507812 308.820312 46.511719 311.144531 48.570312 313.417969 C 50.632812 315.691406 52.746094 317.914062 54.917969 320.082031 C 57.085938 322.253906 59.308594 324.367188 61.582031 326.429688 C 63.855469 328.488281 66.179688 330.492188 68.550781 332.4375 C 70.921875 334.386719 73.339844 336.273438 75.804688 338.101562 C 78.269531 339.929688 80.777344 341.695312 83.332031 343.402344 C 85.882812 345.105469 88.472656 346.746094 91.105469 348.324219 C 93.738281 349.902344 96.40625 351.414062 99.113281 352.859375 C 101.820312 354.308594 104.558594 355.6875 107.332031 356.996094 C 110.105469 358.308594 112.910156 359.554688 115.746094 360.726562 C 118.582031 361.902344 121.445312 363.003906 124.332031 364.039062 C 127.222656 365.074219 130.136719 366.035156 133.070312 366.925781 C 136.007812 367.816406 138.964844 368.636719 141.941406 369.378906 C 144.917969 370.125 147.910156 370.796875 150.921875 371.398438 C 153.929688 371.996094 156.953125 372.519531 159.988281 372.96875 C 163.023438 373.421875 166.066406 373.796875 169.121094 374.097656 C 172.175781 374.398438 175.234375 374.625 178.300781 374.773438 C 181.363281 374.925781 184.429688 375 187.5 375 C 190.570312 375 193.636719 374.925781 196.699219 374.773438 C 199.765625 374.625 202.824219 374.398438 205.878906 374.097656 C 208.933594 373.796875 211.976562 373.421875 215.011719 372.96875 C 218.046875 372.519531 221.070312 371.996094 224.078125 371.398438 C 227.089844 370.796875 230.082031 370.125 233.058594 369.378906 C 236.035156 368.636719 238.992188 367.816406 241.929688 366.925781 C 244.863281 366.035156 247.777344 365.074219 250.667969 364.039062 C 253.554688 363.003906 256.417969 361.902344 259.253906 360.726562 C 262.089844 359.554688 264.890625 358.308594 267.667969 356.996094 C 270.441406 355.6875 273.179688 354.308594 275.886719 352.859375 C 278.59375 351.414062 281.261719 349.902344 283.894531 348.324219 C 286.527344 346.746094 289.117188 345.105469 291.667969 343.402344 C 294.222656 341.695312 296.730469 339.929688 299.195312 338.101562 C 301.660156 336.273438 304.078125 334.386719 306.449219 332.4375 C 308.820312 330.492188 311.144531 328.488281 313.417969 326.429688 C 315.691406 324.367188 317.914062 322.253906 320.082031 320.082031 C 322.253906 317.914062 324.367188 315.691406 326.429688 313.417969 C 328.488281 311.144531 330.492188 308.820312 332.4375 306.449219 C 334.386719 304.078125 336.273438 301.660156 338.101562 299.195312 C 339.929688 296.730469 341.695312 294.222656 343.402344 291.667969 C 345.105469 289.117188 346.746094 286.527344 348.324219 283.894531 C 349.902344 281.261719 351.414062 278.59375 352.859375 275.886719 C 354.308594 273.179688 355.6875 270.441406 356.996094 267.667969 C 358.308594 264.890625 359.554688 262.089844 360.726562 259.253906 C 361.902344 256.417969 363.003906 253.554688 364.039062 250.667969 C 365.074219 247.777344 366.035156 244.863281 366.925781 241.929688 C 367.816406 238.992188 368.636719 236.035156 369.378906 233.058594 C 370.125 230.082031 370.796875 227.089844 371.398438 224.078125 C 371.996094 221.070312 372.519531 218.046875 372.96875 215.011719 C 373.421875 211.976562 373.796875 208.933594 374.097656 205.878906 C 374.398438 202.824219 374.625 199.765625 374.773438 196.699219 C 374.925781 193.636719 375 190.570312 375 187.5 C 375 184.429688 374.925781 181.363281 374.773438 178.300781 C 374.625 175.234375 374.398438 172.175781 374.097656 169.121094 C 373.796875 166.066406 373.421875 163.023438 372.96875 159.988281 C 372.519531 156.953125 371.996094 153.929688 371.398438 150.921875 C 370.796875 147.910156 370.125 144.917969 369.378906 141.941406 C 368.636719 138.964844 367.816406 136.007812 366.925781 133.070312 C 366.035156 130.136719 365.074219 127.222656 364.039062 124.332031 C 363.003906 121.445312 361.902344 118.582031 360.726562 115.746094 C 359.554688 112.910156 358.308594 110.105469 356.996094 107.332031 C 355.6875 104.558594 354.308594 101.820312 352.859375 99.113281 C 351.414062 96.40625 349.902344 93.738281 348.324219 91.105469 C 346.746094 88.472656 345.105469 85.882812 343.402344 83.332031 C 341.695312 80.777344 339.929688 78.269531 338.101562 75.804688 C 336.273438 73.339844 334.386719 70.921875 332.4375 68.550781 C 330.492188 66.179688 328.488281 63.855469 326.429688 61.582031 C 324.367188 59.308594 322.253906 57.085938 320.082031 54.917969 C 317.914062 52.746094 315.691406 50.632812 313.417969 48.570312 C 311.144531 46.511719 308.820312 44.507812 306.449219 42.558594 C 304.078125 40.613281 301.660156 38.726562 299.195312 36.898438 C 296.730469 35.070312 294.222656 33.304688 291.667969 31.597656 C 289.117188 29.894531 286.527344 28.253906 283.894531 26.675781 C 281.261719 25.097656 278.59375 23.585938 275.886719 22.140625 C 273.179688 20.691406 270.441406 19.3125 267.667969 18.003906 C 264.890625 16.691406 262.089844 15.445312 259.253906 14.273438 C 256.417969 13.097656 253.554688 11.996094 250.667969 10.960938 C 247.777344 9.925781 244.863281 8.964844 241.929688 8.074219 C 238.992188 7.183594 236.035156 6.363281 233.058594 5.617188 C 230.082031 4.875 227.089844 4.203125 224.078125 3.601562 C 221.070312 3.003906 218.046875 2.480469 215.011719 2.03125 C 211.976562 1.578125 208.933594 1.203125 205.878906 0.902344 C 202.824219 0.601562 199.765625 0.375 196.699219 0.226562 C 193.636719 0.0742188 190.570312 0 187.5 0 Z M 187.5 0 "/>
<path style=" stroke:none;fill-rule:nonzero;fill:rgb(100%,100%,100%);fill-opacity:1;" d="M 211.554688 240.15625 C 223.265625 237.199219 293.449219 218.464844 297.96875 217.257812 C 299.035156 217.433594 306.425781 219.359375 306.425781 239.15625 C 306.425781 260.339844 297.929688 261.066406 297.839844 261.070312 L 297.6875 261.074219 L 211.554688 283.878906 L 211.554688 240.15625 "/>
<g clip-path="url(#clip1)" clip-rule="nonzero">
<path style=" stroke:none;fill-rule:nonzero;fill:rgb(0%,29.019165%,67.83905%);fill-opacity:1;" d="M 297.859375 215.957031 C 297.859375 215.957031 218.476562 237.160156 210.273438 239.15625 L 210.273438 285.546875 L 297.859375 262.351562 C 297.859375 262.351562 307.707031 262.195312 307.707031 239.15625 C 307.707031 216.113281 297.859375 215.957031 297.859375 215.957031 Z M 298.03125 218.570312 C 299.230469 218.894531 305.148438 221.421875 305.148438 239.15625 C 305.148438 258.054688 298.414062 259.671875 297.78125 259.78125 L 297.597656 259.765625 L 297.207031 259.871094 L 212.832031 282.214844 L 212.832031 241.15625 C 226.78125 237.589844 291.160156 220.402344 298.03125 218.570312 "/>
</g>
<path style=" stroke:none;fill-rule:nonzero;fill:rgb(100%,100%,100%);fill-opacity:1;" d="M 54.710938 237.894531 L 132.707031 217.242188 L 288.359375 217.242188 L 211.777344 238.308594 L 54.710938 237.894531 "/>
<g clip-path="url(#clip2)" clip-rule="nonzero">
<path style=" stroke:none;fill-rule:nonzero;fill:rgb(0%,29.019165%,67.83905%);fill-opacity:1;" d="M 297.859375 215.957031 L 132.539062 215.957031 L 44.953125 239.15625 L 211.949219 239.59375 Z M 278.855469 218.523438 L 211.605469 237.027344 L 64.472656 236.640625 L 132.871094 218.523438 L 278.855469 218.523438 "/>
</g>
<path style=" stroke:none;fill-rule:nonzero;fill:rgb(100%,100%,100%);fill-opacity:1;" d="M 46.230469 284.261719 L 46.230469 282.417969 L 56.894531 282.417969 L 55.613281 242.28125 L 46.230469 242.28125 L 46.230469 240.4375 L 210.273438 240.4375 C 210.316406 240.441406 218.847656 241.101562 218.847656 262.351562 C 218.847656 283.277344 210.574219 284.234375 210.246094 284.261719 L 46.230469 284.261719 "/>
<g clip-path="url(#clip3)" clip-rule="nonzero">
<path style=" stroke:none;fill-rule:nonzero;fill:rgb(0%,29.019165%,67.83905%);fill-opacity:1;" d="M 210.273438 239.15625 L 44.953125 239.15625 L 44.953125 243.5625 L 54.375 243.5625 L 55.574219 281.132812 L 44.953125 281.132812 L 44.953125 285.546875 L 210.273438 285.546875 C 210.273438 285.546875 220.125 285.390625 220.125 262.351562 C 220.125 239.308594 210.273438 239.15625 210.273438 239.15625 Z M 210.238281 241.722656 C 210.445312 241.742188 217.566406 242.90625 217.566406 262.351562 C 217.566406 281.464844 210.671875 282.902344 210.175781 282.980469 L 58.195312 282.980469 L 58.132812 281.054688 L 56.933594 243.484375 L 56.878906 241.722656 L 210.238281 241.722656 "/>
</g>
<path style=" stroke:none;fill-rule:nonzero;fill:rgb(100%,100%,100%);fill-opacity:1;" d="M 50.707031 279.851562 C 52.679688 277.046875 55.4375 271.484375 55.4375 262.351562 C 55.4375 253.214844 52.679688 247.652344 50.707031 244.847656 L 206.125 244.847656 C 206.410156 244.859375 213.996094 245.363281 213.996094 262.351562 C 213.996094 279.183594 206.550781 279.828125 206.101562 279.851562 L 50.707031 279.851562 "/>
<path style=" stroke:none;fill-rule:nonzero;fill:rgb(0%,29.019165%,67.83905%);fill-opacity:1;" d="M 206.125 243.5625 L 47.933594 243.5625 C 47.933594 243.5625 54.15625 248.871094 54.15625 262.351562 C 54.15625 275.828125 47.933594 281.132812 47.933594 281.132812 L 206.125 281.132812 C 206.125 281.132812 215.277344 281.011719 215.277344 262.351562 C 215.277344 243.691406 206.125 243.5625 206.125 243.5625 Z M 206.125 246.128906 L 206.066406 246.132812 C 208.394531 246.351562 212.71875 249.996094 212.71875 262.351562 C 212.71875 274.730469 208.375 278.367188 206.046875 278.566406 L 52.996094 278.566406 C 54.828125 275.25 56.71875 269.976562 56.71875 262.351562 C 56.71875 254.726562 54.828125 249.453125 52.996094 246.128906 L 206.046875 246.128906 L 206.0625 246.132812 L 206.085938 246.128906 L 206.125 246.128906 "/>
<path style=" stroke:none;fill-rule:nonzero;fill:rgb(0%,29.019165%,67.83905%);fill-opacity:1;" d="M 54.375 250.753906 C 54.375 250.753906 54.976562 250.730469 56.097656 250.683594 C 57.222656 250.644531 58.871094 250.558594 60.96875 250.503906 C 65.167969 250.394531 71.160156 250.164062 78.351562 250.019531 C 81.949219 249.949219 85.84375 249.875 89.96875 249.800781 C 94.085938 249.742188 98.433594 249.6875 102.925781 249.625 C 107.425781 249.589844 112.066406 249.550781 116.789062 249.515625 C 121.511719 249.503906 126.308594 249.484375 131.097656 249.472656 C 135.894531 249.484375 140.691406 249.5 145.410156 249.515625 C 150.128906 249.515625 154.777344 249.589844 159.273438 249.621094 C 168.261719 249.710938 176.65625 249.851562 183.851562 250.015625 C 191.042969 250.160156 197.035156 250.394531 201.230469 250.503906 C 203.332031 250.558594 204.976562 250.644531 206.101562 250.683594 C 207.222656 250.730469 207.824219 250.753906 207.824219 250.753906 C 207.824219 250.753906 207.222656 250.777344 206.101562 250.824219 C 204.976562 250.863281 203.332031 250.949219 201.230469 251.003906 C 197.035156 251.113281 191.042969 251.347656 183.851562 251.492188 C 176.65625 251.65625 168.261719 251.792969 159.273438 251.882812 C 154.777344 251.914062 150.128906 251.992188 145.410156 251.992188 C 140.691406 252.007812 135.894531 252.023438 131.097656 252.035156 C 126.308594 252.023438 121.511719 252.003906 116.789062 251.992188 C 112.066406 251.953125 107.425781 251.914062 102.925781 251.882812 C 98.433594 251.820312 94.085938 251.761719 89.96875 251.707031 C 85.84375 251.628906 81.949219 251.554688 78.351562 251.488281 C 71.160156 251.34375 65.167969 251.113281 60.96875 251.003906 C 58.871094 250.945312 57.222656 250.863281 56.097656 250.824219 C 54.976562 250.777344 54.375 250.753906 54.375 250.753906 "/>
<path style=" stroke:none;fill-rule:nonzero;fill:rgb(0%,29.019165%,67.83905%);fill-opacity:1;" d="M 56.132812 269.425781 C 56.132812 269.425781 56.699219 269.402344 57.757812 269.355469 C 58.816406 269.316406 60.371094 269.230469 62.347656 269.175781 C 66.304688 269.066406 71.949219 268.835938 78.730469 268.691406 C 82.117188 268.621094 85.789062 268.546875 89.675781 268.472656 C 93.558594 268.414062 97.652344 268.359375 101.890625 268.296875 C 106.125 268.265625 110.503906 268.195312 114.953125 268.1875 C 119.402344 268.171875 123.921875 268.15625 128.441406 268.144531 C 132.957031 268.15625 137.476562 268.171875 141.925781 268.1875 C 146.371094 268.1875 150.75 268.265625 154.988281 268.292969 C 163.460938 268.382812 171.367188 268.523438 178.148438 268.6875 C 184.925781 268.832031 190.578125 269.066406 194.527344 269.175781 C 196.503906 269.230469 198.058594 269.3125 199.117188 269.355469 C 200.179688 269.402344 200.746094 269.425781 200.746094 269.425781 C 200.746094 269.425781 200.179688 269.449219 199.117188 269.492188 C 198.058594 269.535156 196.503906 269.621094 194.527344 269.675781 C 190.578125 269.785156 184.925781 270.019531 178.148438 270.164062 C 171.367188 270.328125 163.460938 270.464844 154.988281 270.554688 C 150.75 270.585938 146.371094 270.664062 141.925781 270.664062 C 137.476562 270.679688 132.957031 270.695312 128.441406 270.707031 C 123.921875 270.695312 119.402344 270.675781 114.953125 270.664062 C 110.503906 270.65625 106.125 270.585938 101.890625 270.554688 C 97.652344 270.492188 93.558594 270.433594 89.675781 270.378906 C 85.789062 270.300781 82.117188 270.226562 78.730469 270.160156 C 71.949219 270.015625 66.304688 269.785156 62.347656 269.675781 C 60.371094 269.617188 58.816406 269.535156 57.757812 269.492188 C 56.699219 269.449219 56.132812 269.425781 56.132812 269.425781 "/>
<path style=" stroke:none;fill-rule:nonzero;fill:rgb(0%,29.019165%,67.83905%);fill-opacity:1;" d="M 57.996094 257.464844 C 57.996094 257.464844 62.445312 257.039062 69.125 256.734375 C 70.789062 256.652344 72.597656 256.566406 74.507812 256.515625 C 76.421875 256.449219 78.4375 256.371094 80.523438 256.339844 C 82.609375 256.304688 84.761719 256.238281 86.949219 256.230469 C 89.140625 256.214844 91.367188 256.199219 93.589844 256.1875 C 95.816406 256.199219 98.039062 256.214844 100.230469 256.230469 C 102.417969 256.230469 104.574219 256.304688 106.660156 256.335938 C 110.832031 256.425781 114.726562 256.5625 118.0625 256.730469 C 124.738281 257.035156 129.183594 257.464844 129.183594 257.464844 C 129.183594 257.464844 124.738281 257.898438 118.0625 258.203125 C 114.726562 258.367188 110.832031 258.507812 106.660156 258.597656 C 104.574219 258.628906 102.417969 258.707031 100.230469 258.707031 C 98.039062 258.71875 95.816406 258.734375 93.589844 258.75 C 91.367188 258.734375 89.140625 258.71875 86.949219 258.707031 C 84.761719 258.699219 82.609375 258.628906 80.523438 258.597656 C 78.4375 258.566406 76.421875 258.484375 74.507812 258.421875 C 72.597656 258.367188 70.789062 258.28125 69.125 258.203125 C 62.445312 257.898438 57.996094 257.464844 57.996094 257.464844 "/>
<path style=" stroke:none;fill-rule:nonzero;fill:rgb(0%,29.019165%,67.83905%);fill-opacity:1;" d="M 87.066406 262.351562 C 87.066406 262.351562 91.519531 261.921875 98.191406 261.617188 C 99.859375 261.535156 101.667969 261.453125 103.582031 261.394531 C 105.492188 261.335938 107.503906 261.257812 109.59375 261.226562 C 111.679688 261.191406 113.835938 261.117188 116.023438 261.113281 C 118.214844 261.097656 120.4375 261.085938 122.664062 261.070312 C 124.886719 261.085938 127.113281 261.097656 129.300781 261.113281 C 131.492188 261.113281 133.644531 261.1875 135.730469 261.222656 C 139.902344 261.3125 143.796875 261.449219 147.132812 261.613281 C 153.808594 261.921875 158.257812 262.351562 158.257812 262.351562 C 158.257812 262.351562 153.808594 262.785156 147.132812 263.085938 C 143.796875 263.253906 139.902344 263.390625 135.730469 263.480469 C 133.644531 263.515625 131.492188 263.59375 129.300781 263.59375 C 127.113281 263.605469 124.886719 263.617188 122.664062 263.636719 C 120.4375 263.617188 118.214844 263.605469 116.023438 263.589844 C 113.835938 263.585938 111.679688 263.511719 109.59375 263.476562 C 107.503906 263.449219 105.492188 263.367188 103.582031 263.308594 C 101.667969 263.25 99.859375 263.164062 98.191406 263.085938 C 91.519531 262.78125 87.066406 262.351562 87.066406 262.351562 "/>
<path style=" stroke:none;fill-rule:nonzero;fill:rgb(0%,29.019165%,67.83905%);fill-opacity:1;" d="M 118 274.65625 C 118 274.65625 122.449219 274.230469 129.125 273.925781 C 130.792969 273.84375 132.597656 273.757812 134.511719 273.703125 C 136.425781 273.640625 138.4375 273.5625 140.523438 273.53125 C 142.613281 273.496094 144.765625 273.425781 146.957031 273.421875 C 149.144531 273.402344 151.371094 273.390625 153.597656 273.378906 C 155.820312 273.390625 158.046875 273.402344 160.234375 273.421875 C 162.425781 273.421875 164.578125 273.496094 166.664062 273.527344 C 170.835938 273.617188 174.726562 273.753906 178.066406 273.921875 C 184.742188 274.226562 189.191406 274.65625 189.191406 274.65625 C 189.191406 274.65625 184.742188 275.089844 178.066406 275.394531 C 174.726562 275.5625 170.835938 275.699219 166.664062 275.785156 C 164.578125 275.820312 162.425781 275.898438 160.234375 275.898438 C 158.046875 275.914062 155.820312 275.925781 153.597656 275.941406 C 151.371094 275.925781 149.144531 275.910156 146.957031 275.898438 C 144.765625 275.890625 142.613281 275.820312 140.523438 275.785156 C 138.4375 275.753906 136.425781 275.675781 134.511719 275.613281 C 132.597656 275.558594 130.792969 275.472656 129.125 275.394531 C 122.449219 275.089844 118 274.65625 118 274.65625 "/>
<path style=" stroke:none;fill-rule:nonzero;fill:rgb(0%,29.019165%,67.83905%);fill-opacity:1;" d="M 149.417969 257.464844 C 149.417969 257.464844 150.105469 257.355469 151.308594 257.210938 C 152.507812 257.070312 154.226562 256.882812 156.285156 256.734375 C 157.320312 256.652344 158.4375 256.566406 159.617188 256.515625 C 160.796875 256.449219 162.042969 256.371094 163.332031 256.339844 C 164.621094 256.304688 165.953125 256.238281 167.304688 256.230469 C 168.65625 256.214844 170.03125 256.199219 171.410156 256.1875 C 172.78125 256.195312 174.15625 256.210938 175.507812 256.222656 C 176.859375 256.238281 178.191406 256.304688 179.480469 256.335938 C 182.058594 256.425781 184.464844 256.5625 186.523438 256.730469 C 188.585938 256.882812 190.304688 257.070312 191.507812 257.210938 C 192.710938 257.355469 193.394531 257.464844 193.394531 257.464844 C 193.394531 257.464844 192.710938 257.578125 191.507812 257.722656 C 190.304688 257.867188 188.585938 258.054688 186.523438 258.203125 C 184.464844 258.367188 182.058594 258.507812 179.480469 258.597656 C 178.191406 258.632812 176.859375 258.699219 175.507812 258.710938 C 174.15625 258.726562 172.78125 258.734375 171.410156 258.75 C 170.03125 258.734375 168.65625 258.71875 167.304688 258.707031 C 165.953125 258.699219 164.621094 258.628906 163.332031 258.597656 C 162.042969 258.566406 160.796875 258.484375 159.617188 258.421875 C 158.4375 258.367188 157.320312 258.28125 156.285156 258.203125 C 154.226562 258.050781 152.507812 257.863281 151.308594 257.71875 C 150.105469 257.578125 149.417969 257.464844 149.417969 257.464844 "/>
<path style=" stroke:none;fill-rule:nonzero;fill:rgb(0%,29.019165%,67.83905%);fill-opacity:1;" d="M 54.375 274.65625 C 54.375 274.65625 55.0625 274.546875 56.265625 274.402344 C 57.46875 274.261719 59.1875 274.074219 61.246094 273.925781 C 62.28125 273.84375 63.394531 273.757812 64.578125 273.703125 C 65.757812 273.640625 67.003906 273.5625 68.289062 273.53125 C 69.578125 273.496094 70.910156 273.425781 72.265625 273.421875 C 73.617188 273.402344 74.992188 273.390625 76.367188 273.378906 C 77.738281 273.386719 79.117188 273.402344 80.46875 273.414062 C 81.820312 273.425781 83.152344 273.496094 84.441406 273.527344 C 87.019531 273.617188 89.425781 273.753906 91.484375 273.921875 C 93.546875 274.074219 95.261719 274.261719 96.464844 274.402344 C 97.671875 274.546875 98.355469 274.65625 98.355469 274.65625 C 98.355469 274.65625 97.671875 274.769531 96.464844 274.914062 C 95.261719 275.058594 93.546875 275.246094 91.484375 275.394531 C 89.425781 275.5625 87.019531 275.699219 84.441406 275.785156 C 83.152344 275.824219 81.820312 275.890625 80.46875 275.902344 C 79.117188 275.917969 77.738281 275.925781 76.367188 275.941406 C 74.992188 275.925781 73.617188 275.910156 72.265625 275.898438 C 70.910156 275.890625 69.578125 275.820312 68.289062 275.785156 C 67.003906 275.753906 65.757812 275.675781 64.578125 275.613281 C 63.394531 275.558594 62.28125 275.472656 61.246094 275.394531 C 59.1875 275.242188 57.46875 275.054688 56.265625 274.910156 C 55.0625 274.769531 54.375 274.65625 54.375 274.65625 "/>
<path style=" stroke:none;fill-rule:nonzero;fill:rgb(100%,100%,100%);fill-opacity:1;" d="M 168.410156 267.914062 L 157.113281 274.964844 L 157.113281 252.980469 C 157.113281 251.949219 158.113281 251.324219 158.535156 251.101562 L 180.0625 251.101562 C 179.847656 251.597656 179.710938 252.164062 179.710938 252.792969 L 179.710938 274.964844 L 168.410156 267.914062 "/>
<path style=" stroke:none;fill-rule:nonzero;fill:rgb(0%,29.019165%,67.83905%);fill-opacity:1;" d="M 183.039062 249.820312 L 158.257812 249.820312 C 158.257812 249.820312 155.832031 250.753906 155.832031 252.980469 C 155.832031 255.210938 155.832031 277.273438 155.832031 277.273438 L 168.410156 269.425781 L 180.992188 277.273438 C 180.992188 277.273438 180.992188 254.847656 180.992188 252.792969 C 180.992188 250.742188 183.039062 249.820312 183.039062 249.820312 Z M 178.445312 252.386719 C 178.433594 252.519531 178.429688 252.65625 178.429688 252.792969 L 178.429688 272.652344 L 169.761719 267.246094 L 168.410156 266.402344 L 167.058594 267.246094 L 158.394531 272.652344 L 158.394531 252.980469 C 158.394531 252.769531 158.65625 252.539062 158.878906 252.386719 L 178.445312 252.386719 "/>
<path style=" stroke:none;fill-rule:nonzero;fill:rgb(100%,100%,100%);fill-opacity:1;" d="M 87.269531 181.34375 L 144.296875 176.394531 L 282.714844 176.394531 L 225.6875 181.34375 L 87.269531 181.34375 "/>
<path style=" stroke:none;fill-rule:nonzero;fill:rgb(0%,29.019165%,67.83905%);fill-opacity:1;" d="M 312.332031 175.109375 L 144.246094 175.109375 L 57.65625 182.625 L 225.742188 182.625 Z M 253.097656 177.675781 L 225.632812 180.058594 L 116.890625 180.058594 L 144.355469 177.675781 L 253.097656 177.675781 "/>
<path style=" stroke:none;fill-rule:nonzero;fill:rgb(100%,100%,100%);fill-opacity:1;" d="M 58.050781 232.171875 C 56.671875 231.128906 49.992188 225.199219 49.992188 208.039062 C 49.992188 190.75 56.648438 184.9375 58.042969 183.910156 L 222.753906 183.910156 C 219.964844 187.359375 215.519531 194.921875 215.519531 208.039062 C 215.519531 221.164062 219.964844 228.71875 222.753906 232.171875 L 58.050781 232.171875 "/>
<path style=" stroke:none;fill-rule:nonzero;fill:rgb(0%,29.019165%,67.83905%);fill-opacity:1;" d="M 225.742188 182.625 L 57.65625 182.625 C 57.65625 182.625 48.710938 187.859375 48.710938 208.039062 C 48.710938 228.21875 57.65625 233.453125 57.65625 233.453125 L 225.742188 233.453125 C 225.742188 233.453125 216.800781 226.351562 216.800781 208.039062 C 216.800781 189.726562 225.742188 182.625 225.742188 182.625 Z M 220.253906 185.191406 C 217.476562 189.417969 214.242188 196.761719 214.242188 208.039062 C 214.242188 219.316406 217.476562 226.664062 220.253906 230.886719 L 58.5 230.886719 C 56.816406 229.449219 51.273438 223.53125 51.273438 208.039062 C 51.273438 192.503906 56.855469 186.597656 58.496094 185.191406 L 220.253906 185.191406 "/>
<path style=" stroke:none;fill-rule:nonzero;fill:rgb(100%,100%,100%);fill-opacity:1;" d="M 226.1875 232.128906 C 224.578125 230.578125 218.078125 223.355469 218.078125 208.039062 C 218.078125 192.425781 224.839844 185.222656 226.277344 183.867188 L 311.054688 176.507812 L 311.054688 177.832031 L 303.019531 178.53125 L 302.839844 179.488281 C 302.292969 182.378906 302.628906 219.640625 303.222656 222.828125 L 303.441406 223.964844 L 311.054688 223.308594 L 311.054688 224.753906 L 226.1875 232.128906 "/>
<path style=" stroke:none;fill-rule:nonzero;fill:rgb(0%,29.019165%,67.83905%);fill-opacity:1;" d="M 312.335938 175.109375 L 225.742188 182.625 C 225.742188 182.625 216.800781 189.726562 216.800781 208.039062 C 216.800781 226.351562 225.742188 233.453125 225.742188 233.453125 L 312.335938 225.929688 L 312.335938 221.910156 L 304.484375 222.589844 C 303.949219 219.746094 303.5625 182.574219 304.097656 179.726562 L 312.335938 179.007812 Z M 301.703125 178.609375 L 301.582031 179.25 C 301.03125 182.175781 301.359375 219.847656 301.96875 223.0625 L 302.1875 224.238281 L 226.65625 230.796875 C 224.707031 228.773438 219.359375 221.96875 219.359375 208.039062 C 219.359375 193.664062 225.054688 186.875 226.824219 185.109375 L 301.703125 178.609375 "/>
<path style=" stroke:none;fill-rule:nonzero;fill:rgb(100%,100%,100%);fill-opacity:1;" d="M 232.875 227.523438 C 231.449219 226.117188 226.160156 220.058594 226.160156 207.398438 C 226.160156 194.464844 231.683594 188.417969 232.960938 187.191406 L 308.867188 180.597656 C 306.496094 183.628906 303.5 189.605469 303.5 200.457031 C 303.5 212.027344 306.90625 218.058594 309.328125 220.886719 L 232.875 227.523438 "/>
<path style=" stroke:none;fill-rule:nonzero;fill:rgb(0%,29.019165%,67.83905%);fill-opacity:1;" d="M 312.332031 179.007812 L 232.429688 185.949219 C 232.429688 185.949219 224.878906 191.941406 224.878906 207.398438 C 224.878906 222.855469 232.429688 228.847656 232.429688 228.847656 L 312.332031 221.910156 C 312.332031 221.910156 304.78125 217.492188 304.78125 200.457031 C 304.78125 183.425781 312.332031 179.007812 312.332031 179.007812 Z M 306.34375 182.105469 C 304.238281 185.730469 302.222656 191.527344 302.222656 200.457031 C 302.222656 210.25 304.644531 216.28125 306.949219 219.800781 L 233.351562 226.191406 C 231.683594 224.402344 227.4375 218.742188 227.4375 207.398438 C 227.4375 195.664062 231.976562 190.011719 233.523438 188.429688 L 306.34375 182.105469 "/>
<path style=" stroke:none;fill-rule:nonzero;fill:rgb(100%,100%,100%);fill-opacity:1;" d="M 235.808594 190.078125 L 303.640625 185.03125 "/>
<path style=" stroke:none;fill-rule:nonzero;fill:rgb(0%,29.019165%,67.83905%);fill-opacity:1;" d="M 235.808594 190.078125 C 235.808594 190.078125 240.015625 189.335938 246.355469 188.558594 C 247.9375 188.359375 249.648438 188.148438 251.46875 187.957031 C 253.285156 187.757812 255.203125 187.535156 257.1875 187.359375 C 259.171875 187.175781 261.222656 186.949219 263.304688 186.792969 C 265.390625 186.621094 267.511719 186.449219 269.628906 186.273438 C 271.746094 186.132812 273.871094 185.992188 275.957031 185.851562 C 278.042969 185.695312 280.101562 185.617188 282.09375 185.503906 C 286.074219 185.296875 289.796875 185.160156 292.984375 185.085938 C 299.367188 184.917969 303.640625 185.03125 303.640625 185.03125 C 303.640625 185.03125 299.429688 185.777344 293.09375 186.554688 C 289.929688 186.957031 286.230469 187.371094 282.261719 187.753906 C 280.277344 187.9375 278.226562 188.164062 276.140625 188.320312 C 274.058594 188.492188 271.9375 188.660156 269.816406 188.835938 C 267.699219 188.980469 265.574219 189.117188 263.488281 189.257812 C 261.402344 189.410156 259.34375 189.488281 257.351562 189.605469 C 255.363281 189.722656 253.4375 189.789062 251.609375 189.859375 C 249.78125 189.941406 248.058594 189.980469 246.460938 190.019531 C 240.078125 190.191406 235.808594 190.078125 235.808594 190.078125 "/>
<path style=" stroke:none;fill-rule:nonzero;fill:rgb(100%,100%,100%);fill-opacity:1;" d="M 234.6875 222.34375 L 302.519531 217.296875 "/>
<path style=" stroke:none;fill-rule:nonzero;fill:rgb(0%,29.019165%,67.83905%);fill-opacity:1;" d="M 234.6875 222.34375 C 234.6875 222.34375 238.898438 221.601562 245.234375 220.820312 C 246.816406 220.625 248.535156 220.410156 250.351562 220.21875 C 252.167969 220.023438 254.082031 219.800781 256.070312 219.621094 C 258.050781 219.441406 260.097656 219.21875 262.183594 219.058594 C 264.273438 218.886719 266.390625 218.710938 268.511719 218.542969 C 270.632812 218.398438 272.75 218.253906 274.839844 218.113281 C 276.925781 217.960938 278.988281 217.878906 280.972656 217.765625 C 284.957031 217.558594 288.675781 217.421875 291.867188 217.351562 C 298.246094 217.183594 302.519531 217.296875 302.519531 217.296875 C 302.519531 217.296875 298.3125 218.042969 291.976562 218.820312 C 288.808594 219.21875 285.109375 219.636719 281.140625 220.019531 C 279.15625 220.199219 277.109375 220.429688 275.019531 220.585938 C 272.933594 220.753906 270.816406 220.925781 268.699219 221.097656 C 266.578125 221.242188 264.457031 221.386719 262.367188 221.527344 C 260.28125 221.671875 258.226562 221.757812 256.234375 221.871094 C 254.246094 221.988281 252.316406 222.050781 250.488281 222.125 C 248.667969 222.203125 246.9375 222.25 245.339844 222.285156 C 238.960938 222.457031 234.6875 222.34375 234.6875 222.34375 "/>
<path style=" stroke:none;fill-rule:nonzero;fill:rgb(100%,100%,100%);fill-opacity:1;" d="M 227.984375 202.117188 L 302.902344 197.070312 "/>
<path style=" stroke:none;fill-rule:nonzero;fill:rgb(0%,29.019165%,67.83905%);fill-opacity:1;" d="M 227.984375 202.117188 C 227.984375 202.117188 232.640625 201.371094 239.644531 200.59375 C 241.394531 200.398438 243.289062 200.183594 245.296875 199.992188 C 247.304688 199.796875 249.417969 199.574219 251.617188 199.394531 C 253.804688 199.214844 256.070312 198.988281 258.375 198.828125 C 260.679688 198.65625 263.019531 198.488281 265.359375 198.3125 C 267.699219 198.167969 270.039062 198.027344 272.347656 197.886719 C 274.652344 197.730469 276.921875 197.65625 279.121094 197.539062 C 283.515625 197.332031 287.621094 197.195312 291.144531 197.125 C 298.191406 196.957031 302.902344 197.074219 302.902344 197.070312 C 302.902344 197.070312 298.246094 197.816406 291.242188 198.59375 C 287.742188 199 283.65625 199.410156 279.273438 199.792969 C 277.082031 199.972656 274.816406 200.203125 272.515625 200.359375 C 270.210938 200.527344 267.871094 200.703125 265.527344 200.871094 C 263.183594 201.015625 260.84375 201.160156 258.539062 201.296875 C 256.234375 201.449219 253.960938 201.53125 251.765625 201.644531 C 249.566406 201.761719 247.441406 201.824219 245.425781 201.898438 C 243.410156 201.980469 241.5 202.023438 239.742188 202.058594 C 232.699219 202.230469 227.984375 202.117188 227.984375 202.117188 "/>
<path style=" stroke:none;fill-rule:nonzero;fill:rgb(100%,100%,100%);fill-opacity:1;" d="M 230.65625 196.238281 L 260.777344 193.71875 "/>
<path style=" stroke:none;fill-rule:nonzero;fill:rgb(0%,29.019165%,67.83905%);fill-opacity:1;" d="M 230.65625 196.238281 C 230.65625 196.238281 231.117188 196.085938 231.929688 195.875 C 232.742188 195.667969 233.902344 195.382812 235.300781 195.113281 C 236.699219 194.828125 238.335938 194.5625 240.089844 194.308594 C 241.847656 194.070312 243.726562 193.863281 245.609375 193.699219 C 247.492188 193.542969 249.378906 193.433594 251.152344 193.378906 C 252.925781 193.335938 254.582031 193.328125 256.007812 193.375 C 257.433594 193.410156 258.628906 193.496094 259.460938 193.570312 C 260.296875 193.644531 260.777344 193.71875 260.777344 193.71875 C 260.777344 193.71875 260.316406 193.867188 259.503906 194.082031 C 258.691406 194.292969 257.53125 194.578125 256.132812 194.84375 C 254.734375 195.132812 253.097656 195.394531 251.339844 195.648438 C 249.582031 195.890625 247.707031 196.097656 245.824219 196.257812 C 243.941406 196.410156 242.054688 196.519531 240.28125 196.570312 C 238.507812 196.613281 236.847656 196.625 235.421875 196.574219 C 234 196.542969 232.804688 196.457031 231.96875 196.382812 C 231.136719 196.3125 230.65625 196.238281 230.65625 196.238281 "/>
<path style=" stroke:none;fill-rule:nonzero;fill:rgb(100%,100%,100%);fill-opacity:1;" d="M 267.75 193.71875 L 303.640625 191.195312 "/>
<path style=" stroke:none;fill-rule:nonzero;fill:rgb(0%,29.019165%,67.83905%);fill-opacity:1;" d="M 267.75 193.71875 C 267.75 193.71875 268.304688 193.566406 269.273438 193.355469 C 270.246094 193.144531 271.636719 192.863281 273.308594 192.589844 C 274.980469 192.304688 276.933594 192.042969 279.03125 191.789062 C 281.125 191.546875 283.363281 191.339844 285.605469 191.179688 C 287.847656 191.019531 290.09375 190.910156 292.207031 190.855469 C 294.316406 190.816406 296.285156 190.804688 297.980469 190.855469 C 299.675781 190.886719 301.085938 190.972656 302.082031 191.050781 C 303.070312 191.125 303.640625 191.195312 303.640625 191.195312 C 303.640625 191.195312 303.085938 191.347656 302.113281 191.558594 C 301.144531 191.769531 299.753906 192.058594 298.085938 192.324219 C 296.414062 192.613281 294.457031 192.875 292.363281 193.128906 C 290.269531 193.371094 288.027344 193.578125 285.785156 193.734375 C 283.542969 193.890625 281.296875 194 279.1875 194.050781 C 277.078125 194.09375 275.105469 194.105469 273.410156 194.054688 C 271.71875 194.023438 270.300781 193.933594 269.3125 193.863281 C 268.320312 193.789062 267.75 193.71875 267.75 193.71875 "/>
<path style=" stroke:none;fill-rule:nonzero;fill:rgb(100%,100%,100%);fill-opacity:1;" d="M 266.226562 209.300781 L 302.109375 206.777344 "/>
<path style=" stroke:none;fill-rule:nonzero;fill:rgb(0%,29.019165%,67.83905%);fill-opacity:1;" d="M 266.226562 209.300781 C 266.226562 209.300781 266.777344 209.152344 267.75 208.941406 C 268.722656 208.726562 270.109375 208.441406 271.78125 208.175781 C 273.453125 207.886719 275.40625 207.625 277.5 207.371094 C 279.597656 207.128906 281.835938 206.921875 284.078125 206.761719 C 286.324219 206.605469 288.570312 206.496094 290.675781 206.441406 C 292.789062 206.398438 294.757812 206.386719 296.453125 206.4375 C 298.148438 206.472656 299.5625 206.558594 300.550781 206.632812 C 301.539062 206.703125 302.109375 206.777344 302.109375 206.777344 C 302.109375 206.777344 301.5625 206.929688 300.585938 207.140625 C 299.617188 207.351562 298.226562 207.636719 296.558594 207.90625 C 294.886719 208.195312 292.933594 208.460938 290.839844 208.710938 C 288.742188 208.953125 286.503906 209.15625 284.257812 209.316406 C 282.015625 209.472656 279.769531 209.582031 277.660156 209.636719 C 275.550781 209.675781 273.578125 209.6875 271.882812 209.640625 C 270.191406 209.605469 268.773438 209.519531 267.785156 209.445312 C 266.792969 209.371094 266.226562 209.300781 266.226562 209.300781 "/>
<path style=" stroke:none;fill-rule:nonzero;fill:rgb(100%,100%,100%);fill-opacity:1;" d="M 231.863281 215.972656 L 284.167969 210.867188 "/>
<path style=" stroke:none;fill-rule:nonzero;fill:rgb(0%,29.019165%,67.83905%);fill-opacity:1;" d="M 231.863281 215.972656 C 231.863281 215.972656 235.089844 215.226562 239.964844 214.445312 C 241.183594 214.246094 242.503906 214.03125 243.902344 213.839844 C 245.300781 213.640625 246.777344 213.414062 248.304688 213.234375 C 249.832031 213.054688 251.410156 212.828125 253.015625 212.667969 C 254.625 212.492188 256.257812 212.320312 257.890625 212.144531 C 259.527344 212 261.160156 211.855469 262.773438 211.714844 C 264.386719 211.558594 265.976562 211.476562 267.511719 211.359375 C 270.582031 211.148438 273.453125 211.007812 275.921875 210.9375 C 280.855469 210.757812 284.167969 210.871094 284.167969 210.867188 C 284.167969 210.867188 280.941406 211.617188 276.0625 212.398438 C 273.628906 212.804688 270.785156 213.222656 267.726562 213.609375 C 266.199219 213.792969 264.621094 214.019531 263.011719 214.179688 C 261.40625 214.351562 259.773438 214.523438 258.140625 214.699219 C 256.503906 214.84375 254.867188 214.984375 253.257812 215.128906 C 251.648438 215.28125 250.058594 215.363281 248.523438 215.480469 C 246.988281 215.601562 245.496094 215.664062 244.085938 215.742188 C 242.675781 215.820312 241.339844 215.863281 240.109375 215.90625 C 235.175781 216.082031 231.863281 215.972656 231.863281 215.972656 "/>
<path style=" stroke:none;fill-rule:nonzero;fill:rgb(100%,100%,100%);fill-opacity:1;" d="M 244.617188 205.542969 L 280.503906 203.015625 "/>
<path style=" stroke:none;fill-rule:nonzero;fill:rgb(0%,29.019165%,67.83905%);fill-opacity:1;" d="M 244.617188 205.542969 C 244.617188 205.542969 245.171875 205.390625 246.144531 205.179688 C 247.113281 204.96875 248.503906 204.683594 250.171875 204.414062 C 251.84375 204.128906 253.796875 203.863281 255.890625 203.609375 C 257.988281 203.371094 260.230469 203.164062 262.472656 203 C 264.714844 202.84375 266.960938 202.734375 269.070312 202.679688 C 271.179688 202.636719 273.152344 202.625 274.84375 202.675781 C 276.539062 202.707031 277.953125 202.792969 278.941406 202.871094 C 279.9375 202.945312 280.503906 203.015625 280.503906 203.015625 C 280.503906 203.015625 279.953125 203.167969 278.980469 203.378906 C 278.011719 203.59375 276.621094 203.878906 274.945312 204.144531 C 273.277344 204.433594 271.324219 204.695312 269.226562 204.949219 C 267.132812 205.195312 264.890625 205.398438 262.652344 205.558594 C 260.410156 205.710938 258.164062 205.820312 256.050781 205.875 C 253.941406 205.914062 251.96875 205.929688 250.277344 205.878906 C 248.582031 205.847656 247.171875 205.757812 246.179688 205.683594 C 245.1875 205.613281 244.617188 205.542969 244.617188 205.542969 "/>
<path style=" stroke:none;fill-rule:nonzero;fill:rgb(100%,100%,100%);fill-opacity:1;" d="M 104.589844 130.539062 L 161.625 125.585938 L 300.054688 125.585938 L 243.015625 130.539062 L 104.589844 130.539062 "/>
<g clip-path="url(#clip4)" clip-rule="nonzero">
<path style=" stroke:none;fill-rule:nonzero;fill:rgb(0%,29.019165%,67.83905%);fill-opacity:1;" d="M 329.660156 124.304688 L 161.570312 124.304688 L 74.984375 131.824219 L 243.074219 131.824219 Z M 270.445312 126.871094 L 242.960938 129.257812 L 134.199219 129.257812 L 161.679688 126.871094 L 270.445312 126.871094 "/>
</g>
<path style=" stroke:none;fill-rule:nonzero;fill:rgb(100%,100%,100%);fill-opacity:1;" d="M 75.378906 181.367188 C 74 180.324219 67.320312 174.398438 67.320312 157.238281 C 67.320312 140.097656 73.984375 134.164062 75.382812 133.105469 L 240.085938 133.105469 C 237.292969 136.558594 232.851562 144.117188 232.851562 157.238281 C 232.851562 170.355469 237.292969 177.914062 240.085938 181.367188 L 75.378906 181.367188 "/>
<path style=" stroke:none;fill-rule:nonzero;fill:rgb(0%,29.019165%,67.83905%);fill-opacity:1;" d="M 243.074219 131.824219 L 74.984375 131.824219 C 74.984375 131.824219 66.039062 137.058594 66.039062 157.238281 C 66.039062 177.417969 74.984375 182.648438 74.984375 182.648438 L 243.074219 182.648438 C 243.074219 182.648438 234.132812 175.546875 234.132812 157.238281 C 234.132812 138.925781 243.074219 131.824219 243.074219 131.824219 Z M 237.582031 134.390625 C 234.808594 138.613281 231.570312 145.957031 231.570312 157.238281 C 231.570312 168.511719 234.808594 175.859375 237.582031 180.082031 L 75.828125 180.082031 C 74.144531 178.644531 68.601562 172.730469 68.601562 157.238281 C 68.601562 141.699219 74.183594 135.792969 75.824219 134.390625 L 237.582031 134.390625 "/>
<path style=" stroke:none;fill-rule:nonzero;fill:rgb(100%,100%,100%);fill-opacity:1;" d="M 243.515625 181.320312 C 241.910156 179.773438 235.410156 172.554688 235.410156 157.238281 C 235.410156 141.621094 242.167969 134.421875 243.605469 133.066406 L 328.382812 125.703125 L 328.382812 127.03125 L 320.34375 127.726562 L 320.164062 128.6875 C 319.625 131.585938 319.957031 168.851562 320.554688 172.023438 L 320.769531 173.164062 L 328.382812 172.507812 L 328.382812 173.953125 L 243.515625 181.320312 "/>
<g clip-path="url(#clip5)" clip-rule="nonzero">
<path style=" stroke:none;fill-rule:nonzero;fill:rgb(0%,29.019165%,67.83905%);fill-opacity:1;" d="M 329.664062 124.304688 L 243.074219 131.824219 C 243.074219 131.824219 234.132812 138.925781 234.132812 157.238281 C 234.132812 175.546875 243.074219 182.648438 243.074219 182.648438 L 329.664062 175.128906 L 329.664062 171.105469 L 321.8125 171.789062 C 321.273438 168.941406 320.890625 131.769531 321.425781 128.921875 L 329.664062 128.207031 Z M 319.027344 127.804688 L 318.910156 128.449219 C 318.359375 131.382812 318.695312 169.054688 319.296875 172.261719 L 319.519531 173.433594 L 243.984375 179.992188 C 242.035156 177.96875 236.691406 171.164062 236.691406 157.238281 C 236.691406 142.859375 242.382812 136.066406 244.152344 134.308594 L 319.027344 127.804688 "/>
</g>
<path style=" stroke:none;fill-rule:nonzero;fill:rgb(100%,100%,100%);fill-opacity:1;" d="M 250.203125 176.71875 C 248.777344 175.3125 243.488281 169.257812 243.488281 156.59375 C 243.488281 143.65625 249.007812 137.617188 250.289062 136.386719 L 326.195312 129.796875 C 323.828125 132.828125 320.832031 138.804688 320.832031 149.65625 C 320.832031 161.222656 324.234375 167.253906 326.65625 170.078125 L 250.203125 176.71875 "/>
<g clip-path="url(#clip6)" clip-rule="nonzero">
<path style=" stroke:none;fill-rule:nonzero;fill:rgb(0%,29.019165%,67.83905%);fill-opacity:1;" d="M 329.660156 128.207031 L 249.753906 135.144531 C 249.753906 135.144531 242.207031 141.136719 242.207031 156.59375 C 242.207031 172.050781 249.753906 178.042969 249.753906 178.042969 L 329.660156 171.105469 C 329.660156 171.105469 322.113281 166.6875 322.113281 149.65625 C 322.113281 132.621094 329.660156 128.207031 329.660156 128.207031 Z M 323.671875 131.304688 C 321.566406 134.929688 319.550781 140.726562 319.550781 149.65625 C 319.550781 159.445312 321.976562 165.472656 324.28125 168.996094 L 250.683594 175.386719 C 248.988281 173.574219 244.765625 167.917969 244.765625 156.59375 C 244.765625 144.859375 249.304688 139.207031 250.847656 137.625 L 323.671875 131.304688 "/>
</g>
<path style=" stroke:none;fill-rule:nonzero;fill:rgb(100%,100%,100%);fill-opacity:1;" d="M 253.136719 139.277344 L 320.96875 134.230469 "/>
<path style=" stroke:none;fill-rule:nonzero;fill:rgb(0%,29.019165%,67.83905%);fill-opacity:1;" d="M 253.136719 139.277344 C 253.136719 139.277344 257.34375 138.53125 263.683594 137.757812 C 265.265625 137.558594 266.980469 137.339844 268.796875 137.15625 C 270.613281 136.953125 272.53125 136.734375 274.515625 136.554688 C 276.503906 136.371094 278.550781 136.148438 280.636719 135.988281 C 282.722656 135.816406 284.839844 135.648438 286.960938 135.472656 C 289.078125 135.328125 291.199219 135.1875 293.289062 135.046875 C 295.375 134.890625 297.433594 134.816406 299.425781 134.699219 C 303.402344 134.492188 307.125 134.355469 310.316406 134.285156 C 316.699219 134.113281 320.96875 134.230469 320.96875 134.230469 C 320.96875 134.230469 316.761719 134.976562 310.425781 135.753906 C 307.257812 136.15625 303.5625 136.566406 299.589844 136.953125 C 297.605469 137.132812 295.558594 137.363281 293.472656 137.515625 C 291.386719 137.6875 289.269531 137.859375 287.144531 138.03125 C 285.03125 138.171875 282.90625 138.316406 280.816406 138.457031 C 278.730469 138.609375 276.671875 138.6875 274.683594 138.800781 C 272.695312 138.917969 270.765625 138.984375 268.941406 139.054688 C 267.113281 139.140625 265.386719 139.179688 263.789062 139.21875 C 257.410156 139.386719 253.136719 139.277344 253.136719 139.277344 "/>
<path style=" stroke:none;fill-rule:nonzero;fill:rgb(100%,100%,100%);fill-opacity:1;" d="M 252.015625 171.539062 L 319.847656 166.492188 "/>
<path style=" stroke:none;fill-rule:nonzero;fill:rgb(0%,29.019165%,67.83905%);fill-opacity:1;" d="M 252.015625 171.539062 C 252.015625 171.539062 256.226562 170.796875 262.5625 170.019531 C 264.144531 169.824219 265.863281 169.609375 267.679688 169.417969 C 269.496094 169.222656 271.410156 168.996094 273.398438 168.820312 C 275.378906 168.640625 277.429688 168.414062 279.515625 168.25 C 281.601562 168.085938 283.722656 167.910156 285.839844 167.738281 C 287.960938 167.59375 290.082031 167.453125 292.167969 167.3125 C 294.253906 167.15625 296.316406 167.078125 298.304688 166.964844 C 302.285156 166.757812 306.003906 166.621094 309.195312 166.546875 C 315.578125 166.378906 319.847656 166.492188 319.847656 166.492188 C 319.847656 166.492188 315.644531 167.238281 309.304688 168.019531 C 306.136719 168.417969 302.4375 168.832031 298.472656 169.21875 C 296.484375 169.398438 294.4375 169.625 292.351562 169.78125 C 290.265625 169.953125 288.144531 170.125 286.027344 170.296875 C 283.90625 170.441406 281.785156 170.582031 279.699219 170.722656 C 277.613281 170.871094 275.554688 170.953125 273.5625 171.070312 C 271.574219 171.1875 269.648438 171.25 267.820312 171.324219 C 265.996094 171.402344 264.265625 171.441406 262.671875 171.484375 C 256.289062 171.652344 252.015625 171.539062 252.015625 171.539062 "/>
<path style=" stroke:none;fill-rule:nonzero;fill:rgb(100%,100%,100%);fill-opacity:1;" d="M 245.316406 151.3125 L 320.230469 146.269531 "/>
<path style=" stroke:none;fill-rule:nonzero;fill:rgb(0%,29.019165%,67.83905%);fill-opacity:1;" d="M 245.316406 151.3125 C 245.316406 151.3125 249.96875 150.570312 256.972656 149.792969 C 258.722656 149.59375 260.617188 149.378906 262.625 149.1875 C 264.636719 148.992188 266.75 148.769531 268.945312 148.589844 C 271.136719 148.410156 273.398438 148.1875 275.703125 148.027344 C 278.007812 147.855469 280.347656 147.683594 282.6875 147.511719 C 285.03125 147.367188 287.367188 147.222656 289.675781 147.082031 C 291.980469 146.929688 294.25 146.851562 296.453125 146.734375 C 300.84375 146.527344 304.949219 146.390625 308.472656 146.320312 C 315.515625 146.15625 320.230469 146.269531 320.230469 146.269531 C 320.230469 146.269531 315.574219 147.011719 308.574219 147.792969 C 305.070312 148.191406 300.984375 148.609375 296.601562 148.992188 C 294.410156 149.171875 292.144531 149.398438 289.84375 149.554688 C 287.535156 149.726562 285.195312 149.898438 282.859375 150.070312 C 280.515625 150.210938 278.171875 150.355469 275.871094 150.496094 C 273.5625 150.644531 271.289062 150.726562 269.09375 150.839844 C 266.898438 150.957031 264.773438 151.019531 262.753906 151.09375 C 260.738281 151.175781 258.832031 151.21875 257.070312 151.257812 C 250.027344 151.425781 245.316406 151.3125 245.316406 151.3125 "/>
<path style=" stroke:none;fill-rule:nonzero;fill:rgb(100%,100%,100%);fill-opacity:1;" d="M 247.980469 145.4375 L 278.109375 142.914062 "/>
<path style=" stroke:none;fill-rule:nonzero;fill:rgb(0%,29.019165%,67.83905%);fill-opacity:1;" d="M 247.980469 145.4375 C 247.980469 145.4375 248.441406 145.285156 249.253906 145.074219 C 250.066406 144.863281 251.230469 144.582031 252.625 144.3125 C 254.027344 144.027344 255.664062 143.761719 257.417969 143.507812 C 259.175781 143.261719 261.054688 143.054688 262.9375 142.894531 C 264.820312 142.742188 266.707031 142.632812 268.480469 142.578125 C 270.253906 142.535156 271.914062 142.523438 273.339844 142.570312 C 274.765625 142.605469 275.957031 142.691406 276.792969 142.769531 C 277.628906 142.84375 278.109375 142.914062 278.109375 142.914062 C 278.109375 142.914062 277.648438 143.0625 276.835938 143.277344 C 276.023438 143.488281 274.863281 143.773438 273.460938 144.042969 C 272.0625 144.328125 270.425781 144.59375 268.671875 144.84375 C 266.910156 145.089844 265.035156 145.292969 263.152344 145.453125 C 261.269531 145.605469 259.378906 145.714844 257.605469 145.769531 C 255.832031 145.808594 254.175781 145.824219 252.75 145.773438 C 251.328125 145.738281 250.132812 145.652344 249.296875 145.578125 C 248.460938 145.507812 247.980469 145.4375 247.980469 145.4375 "/>
<path style=" stroke:none;fill-rule:nonzero;fill:rgb(100%,100%,100%);fill-opacity:1;" d="M 285.082031 142.914062 L 320.96875 140.394531 "/>
<path style=" stroke:none;fill-rule:nonzero;fill:rgb(0%,29.019165%,67.83905%);fill-opacity:1;" d="M 285.082031 142.914062 C 285.082031 142.914062 285.636719 142.761719 286.605469 142.550781 C 287.574219 142.339844 288.964844 142.058594 290.640625 141.785156 C 292.308594 141.5 294.261719 141.238281 296.359375 140.984375 C 298.453125 140.742188 300.695312 140.535156 302.933594 140.371094 C 305.179688 140.21875 307.425781 140.109375 309.535156 140.054688 C 311.644531 140.011719 313.617188 140 315.308594 140.046875 C 317.003906 140.082031 318.417969 140.171875 319.410156 140.246094 C 320.402344 140.320312 320.96875 140.394531 320.96875 140.394531 C 320.96875 140.394531 320.417969 140.542969 319.445312 140.753906 C 318.472656 140.96875 317.085938 141.25 315.414062 141.523438 C 313.742188 141.804688 311.789062 142.070312 309.691406 142.324219 C 307.597656 142.570312 305.355469 142.773438 303.113281 142.933594 C 300.871094 143.085938 298.625 143.195312 296.519531 143.246094 C 294.40625 143.285156 292.433594 143.300781 290.738281 143.25 C 289.050781 143.21875 287.632812 143.132812 286.640625 143.058594 C 285.648438 142.984375 285.082031 142.914062 285.082031 142.914062 "/>
<path style=" stroke:none;fill-rule:nonzero;fill:rgb(100%,100%,100%);fill-opacity:1;" d="M 283.550781 158.496094 L 319.4375 155.976562 "/>
<path style=" stroke:none;fill-rule:nonzero;fill:rgb(0%,29.019165%,67.83905%);fill-opacity:1;" d="M 283.550781 158.496094 C 283.550781 158.496094 284.105469 158.347656 285.074219 158.136719 C 286.046875 157.925781 287.4375 157.640625 289.105469 157.371094 C 290.777344 157.085938 292.730469 156.820312 294.828125 156.566406 C 296.925781 156.328125 299.160156 156.117188 301.402344 155.957031 C 303.648438 155.804688 305.898438 155.691406 308.007812 155.640625 C 310.113281 155.59375 312.085938 155.585938 313.78125 155.636719 C 315.472656 155.664062 316.890625 155.757812 317.878906 155.828125 C 318.867188 155.902344 319.4375 155.976562 319.4375 155.976562 C 319.4375 155.976562 318.890625 156.128906 317.914062 156.335938 C 316.941406 156.550781 315.554688 156.835938 313.882812 157.105469 C 312.214844 157.394531 310.261719 157.652344 308.164062 157.910156 C 306.066406 158.152344 303.828125 158.355469 301.585938 158.515625 C 299.339844 158.671875 297.09375 158.78125 294.984375 158.832031 C 292.875 158.875 290.90625 158.886719 289.207031 158.832031 C 287.519531 158.804688 286.101562 158.71875 285.113281 158.644531 C 284.121094 158.570312 283.550781 158.496094 283.550781 158.496094 "/>
<path style=" stroke:none;fill-rule:nonzero;fill:rgb(100%,100%,100%);fill-opacity:1;" d="M 249.191406 165.171875 L 301.496094 160.066406 "/>
<path style=" stroke:none;fill-rule:nonzero;fill:rgb(0%,29.019165%,67.83905%);fill-opacity:1;" d="M 249.191406 165.171875 C 249.191406 165.171875 252.417969 164.425781 257.292969 163.644531 C 258.511719 163.445312 259.832031 163.230469 261.230469 163.039062 C 262.628906 162.835938 264.101562 162.613281 265.632812 162.433594 C 267.160156 162.253906 268.738281 162.027344 270.347656 161.863281 C 271.953125 161.691406 273.585938 161.519531 275.21875 161.34375 C 276.855469 161.199219 278.492188 161.054688 280.101562 160.914062 C 281.710938 160.753906 283.304688 160.675781 284.835938 160.558594 C 287.914062 160.347656 290.785156 160.207031 293.25 160.132812 C 298.1875 159.957031 301.496094 160.070312 301.496094 160.066406 C 301.496094 160.066406 298.269531 160.816406 293.394531 161.597656 C 290.957031 162.003906 288.113281 162.421875 285.054688 162.808594 C 283.527344 162.992188 281.949219 163.21875 280.34375 163.378906 C 278.734375 163.550781 277.101562 163.722656 275.46875 163.898438 C 273.832031 164.039062 272.199219 164.183594 270.585938 164.328125 C 268.972656 164.480469 267.382812 164.5625 265.847656 164.679688 C 264.316406 164.800781 262.824219 164.863281 261.414062 164.9375 C 260.003906 165.019531 258.667969 165.0625 257.433594 165.105469 C 252.503906 165.28125 249.191406 165.171875 249.191406 165.171875 "/>
<path style=" stroke:none;fill-rule:nonzero;fill:rgb(100%,100%,100%);fill-opacity:1;" d="M 261.949219 154.738281 L 297.835938 152.214844 "/>
<path style=" stroke:none;fill-rule:nonzero;fill:rgb(0%,29.019165%,67.83905%);fill-opacity:1;" d="M 261.949219 154.738281 C 261.949219 154.738281 262.5 154.585938 263.472656 154.375 C 264.445312 154.164062 265.835938 153.882812 267.503906 153.613281 C 269.175781 153.328125 271.128906 153.0625 273.222656 152.808594 C 275.320312 152.5625 277.558594 152.355469 279.804688 152.195312 C 282.046875 152.042969 284.292969 151.933594 286.398438 151.875 C 288.511719 151.835938 290.480469 151.824219 292.179688 151.871094 C 293.867188 151.90625 295.285156 151.992188 296.273438 152.070312 C 297.269531 152.144531 297.835938 152.214844 297.835938 152.214844 C 297.835938 152.214844 297.28125 152.367188 296.3125 152.578125 C 295.339844 152.792969 293.953125 153.074219 292.277344 153.34375 C 290.609375 153.628906 288.65625 153.894531 286.558594 154.148438 C 284.464844 154.390625 282.226562 154.597656 279.984375 154.757812 C 277.738281 154.910156 275.492188 155.015625 273.382812 155.070312 C 271.273438 155.113281 269.300781 155.125 267.609375 155.074219 C 265.914062 155.042969 264.5 154.957031 263.507812 154.882812 C 262.515625 154.808594 261.949219 154.738281 261.949219 154.738281 "/>
<path style=" stroke:none;fill-rule:nonzero;fill:rgb(100%,100%,100%);fill-opacity:1;" d="M 146.292969 93.914062 L 179.132812 91.058594 L 270.605469 91.058594 L 237.761719 93.914062 L 146.292969 93.914062 "/>
<g clip-path="url(#clip7)" clip-rule="nonzero">
<path style=" stroke:none;fill-rule:nonzero;fill:rgb(0%,29.019165%,67.83905%);fill-opacity:1;" d="M 300.222656 89.773438 L 179.078125 89.773438 L 116.679688 95.195312 L 237.816406 95.195312 Z M 240.988281 92.339844 L 237.703125 92.628906 L 175.90625 92.628906 L 179.191406 92.339844 L 240.988281 92.339844 "/>
</g>
<path style=" stroke:none;fill-rule:nonzero;fill:rgb(100%,100%,100%);fill-opacity:1;" d="M 117.085938 130.539062 C 115.992188 129.675781 111.511719 125.394531 111.511719 113.511719 C 111.511719 101.644531 115.972656 97.359375 117.085938 96.480469 L 234.9375 96.480469 C 232.890625 99.234375 230.089844 104.640625 230.089844 113.511719 C 230.089844 122.378906 232.890625 127.78125 234.9375 130.539062 L 117.085938 130.539062 "/>
<path style=" stroke:none;fill-rule:nonzero;fill:rgb(0%,29.019165%,67.83905%);fill-opacity:1;" d="M 237.816406 95.195312 L 116.679688 95.195312 C 116.679688 95.195312 110.230469 98.964844 110.230469 113.511719 C 110.230469 128.054688 116.679688 131.824219 116.679688 131.824219 L 237.816406 131.824219 C 237.816406 131.824219 231.367188 126.707031 231.367188 113.511719 C 231.367188 100.3125 237.816406 95.195312 237.816406 95.195312 Z M 232.589844 97.761719 C 230.710938 101.015625 228.808594 106.132812 228.808594 113.511719 C 228.808594 120.886719 230.710938 126.003906 232.589844 129.257812 L 117.558594 129.257812 C 116.285156 128.070312 112.792969 123.871094 112.792969 113.511719 C 112.792969 103.148438 116.285156 98.949219 117.558594 97.761719 L 232.589844 97.761719 "/>
<path style=" stroke:none;fill-rule:nonzero;fill:rgb(100%,100%,100%);fill-opacity:1;" d="M 238.269531 130.496094 C 236.992188 129.21875 232.648438 124.082031 232.648438 113.511719 C 232.648438 102.589844 237.199219 97.539062 238.351562 96.4375 L 298.941406 91.175781 L 298.941406 91.410156 L 293.207031 91.910156 L 293.023438 92.867188 C 292.632812 94.957031 292.871094 121.925781 293.300781 124.230469 L 293.515625 125.375 L 298.941406 124.902344 L 298.941406 125.226562 L 238.269531 130.496094 "/>
<g clip-path="url(#clip8)" clip-rule="nonzero">
<path style=" stroke:none;fill-rule:nonzero;fill:rgb(0%,29.019165%,67.83905%);fill-opacity:1;" d="M 300.222656 89.773438 L 237.816406 95.195312 C 237.816406 95.195312 231.367188 100.3125 231.367188 113.511719 C 231.367188 126.707031 237.816406 131.824219 237.816406 131.824219 L 300.222656 126.402344 L 300.222656 123.503906 L 294.5625 123.992188 C 294.179688 121.945312 293.898438 95.160156 294.285156 93.105469 L 300.222656 92.585938 Z M 291.714844 93.089844 C 291.367188 97.324219 291.597656 122.085938 292.046875 124.46875 L 292.058594 124.535156 L 238.769531 129.167969 C 237.328125 127.53125 233.929688 122.714844 233.929688 113.511719 C 233.929688 103.84375 237.578125 99.097656 238.921875 97.675781 L 291.714844 93.089844 "/>
</g>
<path style=" stroke:none;fill-rule:nonzero;fill:rgb(100%,100%,100%);fill-opacity:1;" d="M 243.089844 127.179688 C 241.96875 126.023438 238.472656 121.730469 238.472656 113.046875 C 238.472656 104.128906 242.160156 99.839844 243.175781 98.828125 L 296.976562 94.15625 C 295.324219 96.558594 293.5 100.84375 293.5 108.046875 C 293.5 115.8125 295.621094 120.183594 297.359375 122.464844 L 243.089844 127.179688 "/>
<path style=" stroke:none;fill-rule:nonzero;fill:rgb(0%,29.019165%,67.83905%);fill-opacity:1;" d="M 300.222656 92.585938 L 242.632812 97.589844 C 242.632812 97.589844 237.195312 101.910156 237.195312 113.046875 C 237.195312 124.1875 242.632812 128.503906 242.632812 128.503906 L 300.222656 123.503906 C 300.222656 123.503906 294.777344 120.320312 294.777344 108.046875 C 294.777344 95.769531 300.222656 92.585938 300.222656 92.585938 Z M 294.621094 95.648438 C 293.3125 98.371094 292.21875 102.351562 292.21875 108.046875 C 292.21875 114.429688 293.589844 118.65625 295.105469 121.375 L 243.597656 125.84375 C 242.347656 124.394531 239.753906 120.488281 239.753906 113.046875 C 239.753906 105.25 242.601562 101.332031 243.753906 100.066406 L 294.621094 95.648438 "/>
<path style=" stroke:none;fill-rule:nonzero;fill:rgb(100%,100%,100%);fill-opacity:1;" d="M 245.070312 100.566406 L 293.953125 96.929688 "/>
<path style=" stroke:none;fill-rule:nonzero;fill:rgb(0%,29.019165%,67.83905%);fill-opacity:1;" d="M 245.070312 100.566406 C 245.070312 100.566406 248.09375 99.90625 252.652344 99.265625 C 253.792969 99.101562 255.027344 98.921875 256.335938 98.769531 C 257.644531 98.609375 259.023438 98.425781 260.453125 98.289062 C 261.886719 98.148438 263.359375 97.96875 264.863281 97.851562 C 266.363281 97.726562 267.890625 97.59375 269.417969 97.46875 C 270.945312 97.367188 272.472656 97.269531 273.980469 97.171875 C 275.484375 97.0625 276.96875 97.027344 278.402344 96.953125 C 281.277344 96.828125 283.957031 96.765625 286.257812 96.761719 C 290.867188 96.726562 293.953125 96.929688 293.953125 96.929688 C 293.953125 96.929688 290.933594 97.585938 286.371094 98.230469 C 284.089844 98.566406 281.425781 98.90625 278.570312 99.207031 C 277.140625 99.347656 275.664062 99.53125 274.164062 99.644531 C 272.660156 99.769531 271.132812 99.898438 269.609375 100.023438 C 268.078125 100.125 266.546875 100.222656 265.042969 100.324219 C 263.539062 100.425781 262.054688 100.464844 260.617188 100.539062 C 259.183594 100.613281 257.796875 100.640625 256.476562 100.671875 C 255.160156 100.714844 253.914062 100.722656 252.761719 100.726562 C 248.15625 100.765625 245.070312 100.566406 245.070312 100.566406 "/>
<path style=" stroke:none;fill-rule:nonzero;fill:rgb(100%,100%,100%);fill-opacity:1;" d="M 244.261719 123.816406 L 293.148438 120.179688 "/>
<path style=" stroke:none;fill-rule:nonzero;fill:rgb(0%,29.019165%,67.83905%);fill-opacity:1;" d="M 244.261719 123.816406 C 244.261719 123.816406 247.285156 123.160156 251.847656 122.515625 C 252.984375 122.351562 254.21875 122.175781 255.527344 122.023438 C 256.839844 121.863281 258.214844 121.679688 259.644531 121.542969 C 261.074219 121.402344 262.546875 121.21875 264.054688 121.101562 C 265.558594 120.976562 267.085938 120.847656 268.609375 120.71875 C 270.136719 120.621094 271.667969 120.519531 273.171875 120.425781 C 274.671875 120.3125 276.160156 120.28125 277.59375 120.203125 C 280.464844 120.082031 283.152344 120.019531 285.457031 120.011719 C 290.058594 119.976562 293.148438 120.183594 293.148438 120.179688 C 293.148438 120.179688 290.125 120.839844 285.5625 121.484375 C 283.28125 121.820312 280.621094 122.15625 277.761719 122.460938 C 276.332031 122.597656 274.859375 122.785156 273.355469 122.894531 C 271.855469 123.019531 270.324219 123.152344 268.796875 123.277344 C 267.269531 123.378906 265.742188 123.476562 264.238281 123.574219 C 262.730469 123.679688 261.25 123.714844 259.8125 123.789062 C 258.378906 123.867188 256.988281 123.890625 255.671875 123.925781 C 254.351562 123.96875 253.105469 123.972656 251.953125 123.980469 C 247.351562 124.015625 244.261719 123.816406 244.261719 123.816406 "/>
<path style=" stroke:none;fill-rule:nonzero;fill:rgb(100%,100%,100%);fill-opacity:1;" d="M 239.429688 109.238281 L 293.421875 105.601562 "/>
<path style=" stroke:none;fill-rule:nonzero;fill:rgb(0%,29.019165%,67.83905%);fill-opacity:1;" d="M 239.429688 109.238281 C 239.429688 109.238281 242.777344 108.582031 247.820312 107.9375 C 249.078125 107.773438 250.441406 107.59375 251.890625 107.445312 C 253.335938 107.285156 254.859375 107.101562 256.4375 106.960938 C 258.019531 106.824219 259.648438 106.640625 261.308594 106.523438 C 262.96875 106.398438 264.65625 106.269531 266.339844 106.140625 C 268.027344 106.039062 269.71875 105.945312 271.378906 105.847656 C 273.039062 105.734375 274.675781 105.699219 276.261719 105.625 C 279.433594 105.503906 282.394531 105.441406 284.9375 105.4375 C 290.019531 105.398438 293.421875 105.601562 293.421875 105.601562 C 293.421875 105.601562 290.074219 106.261719 285.035156 106.90625 C 282.515625 107.242188 279.570312 107.578125 276.414062 107.882812 C 274.832031 108.019531 273.203125 108.207031 271.542969 108.320312 C 269.882812 108.445312 268.199219 108.574219 266.515625 108.699219 C 264.824219 108.800781 263.136719 108.898438 261.472656 108.996094 C 259.8125 109.101562 258.171875 109.136719 256.589844 109.210938 C 255.007812 109.289062 253.472656 109.3125 252.015625 109.347656 C 250.5625 109.390625 249.1875 109.394531 247.917969 109.402344 C 242.835938 109.4375 239.429688 109.238281 239.429688 109.238281 "/>
<path style=" stroke:none;fill-rule:nonzero;fill:rgb(100%,100%,100%);fill-opacity:1;" d="M 241.355469 105.003906 L 263.066406 103.1875 "/>
<path style=" stroke:none;fill-rule:nonzero;fill:rgb(0%,29.019165%,67.83905%);fill-opacity:1;" d="M 241.355469 105.003906 C 241.355469 105.003906 241.683594 104.863281 242.265625 104.671875 C 242.847656 104.484375 243.679688 104.226562 244.6875 103.988281 C 246.691406 103.480469 249.390625 103.050781 252.101562 102.820312 C 254.820312 102.589844 257.550781 102.566406 259.613281 102.734375 C 260.640625 102.800781 261.503906 102.914062 262.113281 103.007812 C 262.71875 103.101562 263.066406 103.1875 263.066406 103.1875 C 263.066406 103.1875 262.734375 103.328125 262.152344 103.519531 C 261.570312 103.710938 260.738281 103.96875 259.734375 104.207031 C 257.730469 104.71875 255.03125 105.144531 252.316406 105.375 C 249.601562 105.597656 246.871094 105.621094 244.808594 105.453125 C 243.777344 105.386719 242.914062 105.273438 242.308594 105.179688 C 241.699219 105.089844 241.355469 105.003906 241.355469 105.003906 "/>
<path style=" stroke:none;fill-rule:nonzero;fill:rgb(100%,100%,100%);fill-opacity:1;" d="M 268.089844 103.1875 L 293.953125 101.367188 "/>
<path style=" stroke:none;fill-rule:nonzero;fill:rgb(0%,29.019165%,67.83905%);fill-opacity:1;" d="M 268.089844 103.1875 C 268.089844 103.1875 268.488281 103.046875 269.183594 102.855469 C 269.882812 102.660156 270.882812 102.40625 272.082031 102.171875 C 274.484375 101.660156 277.699219 101.226562 280.933594 100.996094 C 284.167969 100.773438 287.414062 100.746094 289.863281 100.917969 C 291.085938 100.984375 292.109375 101.097656 292.824219 101.191406 C 293.542969 101.285156 293.953125 101.367188 293.953125 101.367188 C 293.953125 101.367188 293.558594 101.507812 292.863281 101.703125 C 292.160156 101.894531 291.164062 102.152344 289.964844 102.386719 C 287.566406 102.898438 284.34375 103.332031 281.113281 103.558594 C 277.875 103.78125 274.628906 103.804688 272.183594 103.632812 C 270.960938 103.570312 269.9375 103.453125 269.222656 103.359375 C 268.503906 103.269531 268.089844 103.1875 268.089844 103.1875 "/>
<path style=" stroke:none;fill-rule:nonzero;fill:rgb(100%,100%,100%);fill-opacity:1;" d="M 266.992188 114.417969 L 292.855469 112.601562 "/>
<path style=" stroke:none;fill-rule:nonzero;fill:rgb(0%,29.019165%,67.83905%);fill-opacity:1;" d="M 266.992188 114.417969 C 266.992188 114.417969 267.382812 114.277344 268.085938 114.089844 C 268.78125 113.894531 269.777344 113.636719 270.980469 113.402344 C 273.378906 112.890625 276.601562 112.460938 279.832031 112.230469 C 283.066406 112.003906 286.3125 111.976562 288.761719 112.148438 C 289.984375 112.214844 291.007812 112.332031 291.726562 112.421875 C 292.441406 112.515625 292.855469 112.601562 292.855469 112.601562 C 292.855469 112.601562 292.457031 112.738281 291.761719 112.933594 C 291.0625 113.125 290.066406 113.382812 288.863281 113.621094 C 286.464844 114.132812 283.242188 114.558594 280.011719 114.789062 C 276.78125 115.011719 273.53125 115.035156 271.082031 114.867188 C 269.859375 114.800781 268.835938 114.6875 268.121094 114.59375 C 267.40625 114.5 266.992188 114.417969 266.992188 114.417969 "/>
<path style=" stroke:none;fill-rule:nonzero;fill:rgb(100%,100%,100%);fill-opacity:1;" d="M 242.226562 119.226562 L 279.917969 115.546875 "/>
<path style=" stroke:none;fill-rule:nonzero;fill:rgb(0%,29.019165%,67.83905%);fill-opacity:1;" d="M 242.226562 119.226562 C 242.226562 119.226562 242.804688 119.058594 243.824219 118.816406 C 244.835938 118.574219 246.292969 118.246094 248.042969 117.925781 C 249.796875 117.582031 251.84375 117.257812 254.042969 116.933594 C 256.242188 116.625 258.59375 116.34375 260.949219 116.109375 C 263.304688 115.882812 265.667969 115.703125 267.882812 115.582031 C 270.105469 115.472656 272.175781 115.394531 273.960938 115.390625 C 275.742188 115.367188 277.230469 115.410156 278.277344 115.453125 C 279.320312 115.496094 279.917969 115.546875 279.917969 115.546875 C 279.917969 115.546875 279.34375 115.71875 278.328125 115.960938 C 277.308594 116.203125 275.855469 116.535156 274.101562 116.859375 C 272.351562 117.199219 270.300781 117.523438 268.105469 117.84375 C 265.90625 118.15625 263.554688 118.433594 261.199219 118.667969 C 258.84375 118.890625 256.484375 119.070312 254.261719 119.191406 C 252.046875 119.300781 249.96875 119.378906 248.1875 119.382812 C 246.402344 119.40625 244.914062 119.363281 243.871094 119.320312 C 242.824219 119.28125 242.226562 119.226562 242.226562 119.226562 "/>
<path style=" stroke:none;fill-rule:nonzero;fill:rgb(100%,100%,100%);fill-opacity:1;" d="M 251.417969 111.707031 L 277.28125 109.890625 "/>
<path style=" stroke:none;fill-rule:nonzero;fill:rgb(0%,29.019165%,67.83905%);fill-opacity:1;" d="M 251.417969 111.707031 C 251.417969 111.707031 251.8125 111.566406 252.511719 111.378906 C 253.210938 111.183594 254.207031 110.929688 255.410156 110.691406 C 257.808594 110.179688 261.027344 109.75 264.257812 109.519531 C 267.492188 109.292969 270.742188 109.269531 273.191406 109.4375 C 274.410156 109.503906 275.4375 109.621094 276.152344 109.714844 C 276.867188 109.808594 277.28125 109.890625 277.28125 109.890625 C 277.28125 109.890625 276.886719 110.03125 276.1875 110.222656 C 275.492188 110.414062 274.492188 110.671875 273.289062 110.910156 C 270.890625 111.421875 267.671875 111.847656 264.4375 112.078125 C 261.207031 112.304688 257.957031 112.328125 255.507812 112.15625 C 254.289062 112.089844 253.261719 111.976562 252.550781 111.882812 C 251.832031 111.792969 251.417969 111.707031 251.417969 111.707031 "/>
</g>
</svg>
