<?xml version="1.0" encoding="UTF-8"?>
<svg xmlns="http://www.w3.org/2000/svg" xmlns:xlink="http://www.w3.org/1999/xlink" width="72" height="72" viewBox="0 0 375 374.999991" version="1.2">
<defs>
<clipPath id="clip1">
  <path d="M 37.5 44.878906 L 322.5 44.878906 L 322.5 329.878906 L 37.5 329.878906 Z M 37.5 44.878906 "/>
</clipPath>
</defs>
<g id="surface1">
<path style=" stroke:none;fill-rule:nonzero;fill:rgb(0%,29.019165%,67.83905%);fill-opacity:1;" d="M 187.5 0 C 184.429688 0 181.363281 0.0742188 178.300781 0.226562 C 175.234375 0.375 172.175781 0.601562 169.121094 0.902344 C 166.066406 1.203125 163.023438 1.578125 159.988281 2.03125 C 156.953125 2.480469 153.929688 3.003906 150.921875 3.601562 C 147.910156 4.203125 144.917969 4.875 141.941406 5.617188 C 138.964844 6.363281 136.007812 7.183594 133.070312 8.074219 C 130.136719 8.964844 127.222656 9.925781 124.332031 10.960938 C 121.445312 11.996094 118.582031 13.097656 115.746094 14.273438 C 112.910156 15.445312 110.105469 16.691406 107.332031 18.003906 C 104.558594 19.3125 101.820312 20.691406 99.113281 22.140625 C 96.40625 23.585938 93.738281 25.097656 91.105469 26.675781 C 88.472656 28.253906 85.882812 29.894531 83.332031 31.597656 C 80.777344 33.304688 78.269531 35.070312 75.804688 36.898438 C 73.339844 38.726562 70.921875 40.613281 68.550781 42.558594 C 66.179688 44.507812 63.855469 46.511719 61.582031 48.570312 C 59.308594 50.632812 57.085938 52.746094 54.917969 54.917969 C 52.746094 57.085938 50.632812 59.308594 48.570312 61.582031 C 46.511719 63.855469 44.507812 66.179688 42.558594 68.550781 C 40.613281 70.921875 38.726562 73.339844 36.898438 75.804688 C 35.070312 78.269531 33.304688 80.777344 31.597656 83.332031 C 29.894531 85.882812 28.253906 88.472656 26.675781 91.105469 C 25.097656 93.738281 23.585938 96.40625 22.140625 99.113281 C 20.691406 101.820312 19.3125 104.558594 18.003906 107.332031 C 16.691406 110.105469 15.445312 112.910156 14.273438 115.746094 C 13.097656 118.582031 11.996094 121.445312 10.960938 124.332031 C 9.925781 127.222656 8.964844 130.136719 8.074219 133.070312 C 7.183594 136.007812 6.363281 138.964844 5.621094 141.941406 C 4.875 144.917969 4.203125 147.910156 3.601562 150.921875 C 3.003906 153.929688 2.480469 156.953125 2.03125 159.988281 C 1.578125 163.023438 1.203125 166.066406 0.902344 169.121094 C 0.601562 172.175781 0.375 175.234375 0.226562 178.300781 C 0.0742188 181.363281 0 184.429688 0 187.5 C 0 190.570312 0.0742188 193.636719 0.226562 196.699219 C 0.375 199.765625 0.601562 202.824219 0.902344 205.878906 C 1.203125 208.933594 1.578125 211.976562 2.03125 215.011719 C 2.480469 218.046875 3.003906 221.070312 3.601562 224.078125 C 4.203125 227.089844 4.875 230.082031 5.621094 233.058594 C 6.363281 236.035156 7.183594 238.992188 8.074219 241.929688 C 8.964844 244.863281 9.925781 247.777344 10.960938 250.667969 C 11.996094 253.554688 13.097656 256.417969 14.273438 259.253906 C 15.445312 262.089844 16.691406 264.890625 18.003906 267.667969 C 19.3125 270.441406 20.691406 273.179688 22.140625 275.886719 C 23.585938 278.59375 25.097656 281.261719 26.675781 283.894531 C 28.253906 286.527344 29.894531 289.117188 31.597656 291.667969 C 33.304688 294.222656 35.070312 296.730469 36.898438 299.195312 C 38.726562 301.660156 40.613281 304.078125 42.558594 306.449219 C 44.507812 308.820312 46.511719 311.144531 48.570312 313.417969 C 50.632812 315.691406 52.746094 317.914062 54.917969 320.082031 C 57.085938 322.253906 59.308594 324.367188 61.582031 326.429688 C 63.855469 328.488281 66.179688 330.492188 68.550781 332.4375 C 70.921875 334.386719 73.339844 336.273438 75.804688 338.101562 C 78.269531 339.929688 80.777344 341.695312 83.332031 343.402344 C 85.882812 345.105469 88.472656 346.746094 91.105469 348.324219 C 93.738281 349.902344 96.40625 351.414062 99.113281 352.859375 C 101.820312 354.308594 104.558594 355.6875 107.332031 356.996094 C 110.105469 358.308594 112.910156 359.554688 115.746094 360.726562 C 118.582031 361.902344 121.445312 363.003906 124.332031 364.039062 C 127.222656 365.074219 130.136719 366.035156 133.070312 366.925781 C 136.007812 367.816406 138.964844 368.636719 141.941406 369.378906 C 144.917969 370.125 147.910156 370.796875 150.921875 371.398438 C 153.929688 371.996094 156.953125 372.519531 159.988281 372.96875 C 163.023438 373.421875 166.066406 373.796875 169.121094 374.097656 C 172.175781 374.398438 175.234375 374.625 178.300781 374.773438 C 181.363281 374.925781 184.429688 375 187.5 375 C 190.570312 375 193.636719 374.925781 196.699219 374.773438 C 199.765625 374.625 202.824219 374.398438 205.878906 374.097656 C 208.933594 373.796875 211.976562 373.421875 215.011719 372.96875 C 218.046875 372.519531 221.070312 371.996094 224.078125 371.398438 C 227.089844 370.796875 230.082031 370.125 233.058594 369.378906 C 236.035156 368.636719 238.992188 367.816406 241.929688 366.925781 C 244.863281 366.035156 247.777344 365.074219 250.667969 364.039062 C 253.554688 363.003906 256.417969 361.902344 259.253906 360.726562 C 262.089844 359.554688 264.890625 358.308594 267.667969 356.996094 C 270.441406 355.6875 273.179688 354.308594 275.886719 352.859375 C 278.59375 351.414062 281.261719 349.902344 283.894531 348.324219 C 286.527344 346.746094 289.117188 345.105469 291.667969 343.402344 C 294.222656 341.695312 296.730469 339.929688 299.195312 338.101562 C 301.660156 336.273438 304.078125 334.386719 306.449219 332.4375 C 308.820312 330.492188 311.144531 328.488281 313.417969 326.429688 C 315.691406 324.367188 317.914062 322.253906 320.082031 320.082031 C 322.253906 317.914062 324.367188 315.691406 326.429688 313.417969 C 328.488281 311.144531 330.492188 308.820312 332.4375 306.449219 C 334.386719 304.078125 336.273438 301.660156 338.101562 299.195312 C 339.929688 296.730469 341.695312 294.222656 343.402344 291.667969 C 345.105469 289.117188 346.746094 286.527344 348.324219 283.894531 C 349.902344 281.261719 351.414062 278.59375 352.859375 275.886719 C 354.308594 273.179688 355.6875 270.441406 356.996094 267.667969 C 358.308594 264.890625 359.554688 262.089844 360.726562 259.253906 C 361.902344 256.417969 363.003906 253.554688 364.039062 250.667969 C 365.074219 247.777344 366.035156 244.863281 366.925781 241.929688 C 367.816406 238.992188 368.636719 236.035156 369.378906 233.058594 C 370.125 230.082031 370.796875 227.089844 371.398438 224.078125 C 371.996094 221.070312 372.519531 218.046875 372.96875 215.011719 C 373.421875 211.976562 373.796875 208.933594 374.097656 205.878906 C 374.398438 202.824219 374.625 199.765625 374.773438 196.699219 C 374.925781 193.636719 375 190.570312 375 187.5 C 375 184.429688 374.925781 181.363281 374.773438 178.300781 C 374.625 175.234375 374.398438 172.175781 374.097656 169.121094 C 373.796875 166.066406 373.421875 163.023438 372.96875 159.988281 C 372.519531 156.953125 371.996094 153.929688 371.398438 150.921875 C 370.796875 147.910156 370.125 144.917969 369.378906 141.941406 C 368.636719 138.964844 367.816406 136.007812 366.925781 133.070312 C 366.035156 130.136719 365.074219 127.222656 364.039062 124.332031 C 363.003906 121.445312 361.902344 118.582031 360.726562 115.746094 C 359.554688 112.910156 358.308594 110.105469 356.996094 107.332031 C 355.6875 104.558594 354.308594 101.820312 352.859375 99.113281 C 351.414062 96.40625 349.902344 93.738281 348.324219 91.105469 C 346.746094 88.472656 345.105469 85.882812 343.402344 83.332031 C 341.695312 80.777344 339.929688 78.269531 338.101562 75.804688 C 336.273438 73.339844 334.386719 70.921875 332.4375 68.550781 C 330.492188 66.179688 328.488281 63.855469 326.429688 61.582031 C 324.367188 59.308594 322.253906 57.085938 320.082031 54.917969 C 317.914062 52.746094 315.691406 50.632812 313.417969 48.570312 C 311.144531 46.511719 308.820312 44.507812 306.449219 42.558594 C 304.078125 40.613281 301.660156 38.726562 299.195312 36.898438 C 296.730469 35.070312 294.222656 33.304688 291.667969 31.597656 C 289.117188 29.894531 286.527344 28.253906 283.894531 26.675781 C 281.261719 25.097656 278.59375 23.585938 275.886719 22.140625 C 273.179688 20.691406 270.441406 19.3125 267.667969 18.003906 C 264.890625 16.691406 262.089844 15.445312 259.253906 14.273438 C 256.417969 13.097656 253.554688 11.996094 250.667969 10.960938 C 247.777344 9.925781 244.863281 8.964844 241.929688 8.074219 C 238.992188 7.183594 236.035156 6.363281 233.058594 5.617188 C 230.082031 4.875 227.089844 4.203125 224.078125 3.601562 C 221.070312 3.003906 218.046875 2.480469 215.011719 2.03125 C 211.976562 1.578125 208.933594 1.203125 205.878906 0.902344 C 202.824219 0.601562 199.765625 0.375 196.699219 0.226562 C 193.636719 0.0742188 190.570312 0 187.5 0 Z M 187.5 0 "/>
<g clip-path="url(#clip1)" clip-rule="nonzero">
<path style=" stroke:none;fill-rule:nonzero;fill:rgb(100%,100%,100%);fill-opacity:1;" d="M 305.019531 277.777344 L 288.878906 280.464844 C 283.589844 281.339844 279.75 285.882812 279.75 291.246094 L 279.75 304.140625 L 275 305.089844 L 275 248.273438 L 313 240.667969 L 313 279.613281 C 310.679688 278.015625 307.839844 277.292969 305.019531 277.777344 Z M 308.25 305.738281 L 289.25 308.910156 L 289.25 291.246094 C 289.25 290.542969 289.75 289.949219 290.457031 289.835938 L 306.578125 287.144531 C 306.652344 287.128906 306.746094 287.128906 306.820312 287.128906 C 307.265625 287.128906 307.582031 287.332031 307.75 287.460938 C 307.933594 287.628906 308.25 287.980469 308.25 288.554688 L 308.25 305.738281 L 309.027344 310.433594 Z M 280.675781 320.265625 C 276.445312 321.007812 272.71875 318.949219 270.789062 315.570312 C 270.917969 315.554688 271.046875 315.554688 271.175781 315.535156 L 281.03125 313.566406 C 281.566406 314.53125 282.234375 315.421875 283.109375 316.164062 C 283.90625 316.832031 284.796875 317.335938 285.742188 317.707031 C 284.371094 318.984375 282.644531 319.933594 280.675781 320.265625 Z M 256 249.128906 L 265.5 249.128906 L 265.5 306.128906 L 256 306.128906 Z M 208.5 240.667969 L 246.5 248.273438 L 246.5 305.089844 L 208.5 297.480469 Z M 184.75 243.949219 L 174.617188 225.378906 L 194.878906 225.378906 Z M 120.902344 201.386719 L 120.363281 196.488281 C 119.027344 184.835938 120.792969 172.921875 125.46875 162.03125 C 129.625 152.328125 131.738281 142.046875 131.738281 131.417969 C 131.738281 130.136719 131.683594 128.820312 131.644531 127.484375 L 130.828125 111.042969 C 130.085938 96.125 135.355469 81.96875 145.65625 71.152344 C 155.933594 60.332031 169.832031 54.378906 184.75 54.378906 C 214.53125 54.378906 238.761719 78.589844 238.761719 108.335938 C 238.761719 109.167969 238.707031 110.042969 238.667969 111.042969 L 237.851562 127.484375 C 237.257812 139.226562 239.394531 151.175781 244.03125 162.011719 C 247.722656 170.660156 249.578125 179.695312 249.578125 188.898438 C 249.578125 191.164062 249.429688 193.648438 249.132812 196.507812 L 248.597656 201.421875 C 243.585938 198.492188 237.835938 196.878906 231.914062 196.878906 L 210.390625 196.878906 C 209.371094 196.878906 208.5 196.003906 208.5 194.964844 L 208.5 176.207031 C 222.675781 167.96875 232.25 152.660156 232.25 135.128906 L 232.25 111.378906 C 232.25 109.019531 230.503906 107.015625 228.167969 106.683594 C 207.292969 103.695312 187.699219 94.976562 171.484375 81.484375 L 168.792969 79.222656 C 167.679688 78.292969 166.195312 77.921875 164.785156 78.238281 C 163.355469 78.535156 162.148438 79.464844 161.5 80.742188 L 159.664062 84.4375 C 155.023438 93.714844 147.992188 101.671875 139.363281 107.425781 C 138.046875 108.296875 137.25 109.78125 137.25 111.378906 L 137.25 135.128906 C 137.25 152.660156 146.824219 167.96875 161 176.207031 L 161 194.964844 C 161 196.003906 160.128906 196.878906 159.105469 196.878906 L 137.527344 196.878906 C 131.683594 196.878906 125.949219 198.492188 120.902344 201.386719 Z M 76.816406 308.28125 L 79.898438 268.128906 L 99.25 268.128906 L 99.25 309.152344 C 99.25 315.332031 94.203125 320.378906 88.003906 320.378906 C 84.851562 320.378906 81.917969 319.097656 79.765625 316.777344 C 77.613281 314.457031 76.558594 311.433594 76.816406 308.28125 Z M 99.25 249.128906 L 99.25 258.628906 L 80.25 258.628906 L 80.25 249.128906 Z M 57.355469 237.121094 L 49.617188 233.246094 C 48.003906 232.445312 47 230.8125 47 229.015625 L 47 215.597656 C 47 215.152344 47.242188 214.914062 47.445312 214.800781 C 47.574219 214.726562 47.742188 214.632812 47.945312 214.632812 C 48.074219 214.632812 48.222656 214.671875 48.371094 214.746094 L 53.105469 217.121094 C 57.707031 219.402344 62.847656 220.628906 67.984375 220.628906 L 85 220.628906 C 86.652344 220.628906 88.171875 219.773438 89.042969 218.382812 C 89.898438 216.972656 89.992188 215.226562 89.25 213.742188 L 84.90625 205.058594 C 84.292969 203.835938 84.257812 202.40625 84.832031 201.183594 C 85.410156 199.9375 86.503906 199.03125 87.820312 198.695312 C 90.011719 198.15625 92.253906 199.308594 93.089844 201.386719 L 99.25 216.785156 L 99.25 239.628906 L 67.984375 239.628906 C 64.3125 239.628906 60.636719 238.753906 57.355469 237.121094 Z M 251.714844 239.628906 L 243.085938 237.902344 L 208.5 230.980469 L 208.5 226.230469 L 245.925781 232.464844 C 250.097656 233.171875 253.457031 235.933594 255.035156 239.628906 Z M 249.023438 213.726562 C 251.15625 215.839844 252.808594 218.402344 253.957031 221.332031 L 256.054688 226.601562 C 253.53125 224.894531 250.65625 223.632812 247.484375 223.09375 L 210.316406 216.917969 L 216.070312 206.378906 L 231.914062 206.378906 C 238.371094 206.378906 244.570312 209.011719 249.023438 213.726562 Z M 184.75 173.128906 C 163.800781 173.128906 146.75 156.074219 146.75 135.128906 L 146.75 113.863281 C 155.285156 107.683594 162.335938 99.632812 167.308594 90.335938 C 183.414062 103.214844 202.449219 111.839844 222.75 115.421875 L 222.75 135.128906 C 222.75 156.074219 205.699219 173.128906 184.75 173.128906 Z M 163.707031 205.375 C 167.699219 203.613281 170.5 199.625 170.5 194.964844 L 170.5 180.4375 C 175.007812 181.867188 179.796875 182.628906 184.75 182.628906 C 189.703125 182.628906 194.492188 181.867188 199 180.4375 L 199 194.964844 C 199 199.625 201.800781 203.613281 205.789062 205.375 L 200.058594 215.878906 L 169.441406 215.878906 Z M 275.59375 232.464844 L 313 226.230469 L 313 230.980469 L 278.414062 237.902344 L 269.785156 239.628906 L 266.464844 239.628906 C 268.042969 235.933594 271.398438 233.171875 275.59375 232.464844 Z M 316.96875 215.953125 L 274.015625 223.09375 C 271.101562 223.578125 268.449219 224.652344 266.09375 226.15625 L 262.789062 217.84375 C 261.472656 214.449219 259.597656 211.40625 257.335938 208.769531 L 258.578125 197.527344 C 258.914062 194.316406 259.078125 191.496094 259.078125 188.898438 C 259.078125 178.414062 256.964844 168.117188 252.769531 158.285156 C 248.6875 148.765625 246.816406 138.28125 247.351562 127.945312 L 248.167969 111.339844 C 248.207031 110.320312 248.261719 109.316406 248.261719 108.335938 C 248.261719 73.339844 219.761719 44.878906 184.75 44.878906 C 167.195312 44.878906 150.867188 51.871094 138.769531 64.601562 C 126.65625 77.328125 120.476562 93.992188 121.347656 111.527344 L 122.144531 127.910156 C 122.203125 129.078125 122.238281 130.246094 122.238281 131.417969 C 122.238281 140.730469 120.382812 149.785156 116.726562 158.285156 C 111.421875 170.679688 109.398438 184.261719 110.921875 197.546875 L 112.164062 208.660156 C 110.699219 210.347656 109.453125 212.167969 108.398438 214.078125 L 101.902344 197.84375 C 99.324219 191.386719 92.273438 187.765625 85.519531 189.472656 C 81.382812 190.511719 77.984375 193.332031 76.207031 197.210938 C 74.421875 201.089844 74.496094 205.488281 76.410156 209.308594 L 77.316406 211.128906 L 67.984375 211.128906 C 64.3125 211.128906 60.636719 210.253906 57.355469 208.621094 L 52.621094 206.246094 C 49.355469 204.632812 45.550781 204.800781 42.453125 206.710938 C 39.355469 208.621094 37.5 211.945312 37.5 215.597656 L 37.5 229.015625 C 37.5 234.433594 40.523438 239.3125 45.367188 241.761719 L 53.105469 245.621094 C 57.707031 247.902344 62.847656 249.128906 67.984375 249.128906 L 70.75 249.128906 L 70.75 263.191406 L 67.335938 307.554688 C 66.890625 313.289062 68.894531 319.003906 72.792969 323.234375 C 76.707031 327.445312 82.253906 329.878906 88.003906 329.878906 C 88.226562 329.878906 88.433594 329.820312 88.636719 329.820312 C 88.691406 329.820312 88.746094 329.839844 88.804688 329.839844 C 88.820312 329.839844 88.839844 329.839844 88.859375 329.839844 C 89.230469 329.878906 89.601562 329.878906 89.953125 329.878906 C 97.949219 329.878906 105.148438 324.886719 107.933594 317.316406 L 129.640625 276.941406 C 130.902344 282.824219 133.390625 288.5 137.25 293.546875 L 137.25 329.878906 L 146.75 329.878906 L 146.75 291.878906 C 146.75 290.765625 146.359375 289.6875 145.65625 288.835938 C 134.226562 275.140625 136.082031 254.695312 149.792969 243.28125 L 143.707031 235.972656 C 141.203125 238.070312 139.011719 240.425781 137.121094 242.949219 L 137.101562 242.929688 L 137.121094 242.949219 C 134.523438 246.398438 132.519531 250.183594 131.109375 254.15625 L 108.75 295.738281 L 108.75 238.03125 L 115.503906 221.222656 C 116.617188 218.382812 118.285156 215.804688 120.496094 213.558594 C 124.984375 208.992188 131.183594 206.378906 137.527344 206.378906 L 153.429688 206.378906 L 180.574219 256.140625 C 181.410156 257.679688 183.003906 258.628906 184.75 258.628906 C 186.492188 258.628906 188.089844 257.679688 188.925781 256.140625 L 199 237.679688 L 199 301.378906 C 199 303.640625 200.59375 305.589844 202.820312 306.035156 L 222.75 310.023438 L 222.75 329.878906 L 232.25 329.878906 L 232.25 311.917969 L 250.320312 315.535156 C 250.617188 315.589844 250.933594 315.628906 251.25 315.628906 L 260.230469 315.628906 L 261.15625 317.316406 C 263.941406 324.847656 271.121094 329.878906 279.175781 329.878906 C 280.214844 329.878906 281.253906 329.804688 282.308594 329.617188 C 289.230469 328.429688 294.835938 323.605469 297.152344 317.222656 L 309.808594 315.109375 C 314.242188 314.367188 317.472656 310.671875 317.710938 306.21875 L 318.675781 306.035156 C 320.902344 305.589844 322.5 303.640625 322.5 301.378906 L 322.5 220.628906 C 322.5 219.234375 321.886719 217.898438 320.828125 217.007812 C 319.753906 216.101562 318.324219 215.730469 316.96875 215.953125 Z M 189.5 139.878906 L 199 139.878906 C 199 147.746094 192.617188 154.128906 184.75 154.128906 C 176.882812 154.128906 170.5 147.746094 170.5 139.878906 L 180 139.878906 C 180 142.492188 182.132812 144.628906 184.75 144.628906 C 187.367188 144.628906 189.5 142.492188 189.5 139.878906 Z M 206.125 116.128906 C 202.191406 116.128906 199 119.320312 199 123.253906 C 199 127.1875 202.191406 130.378906 206.125 130.378906 C 210.058594 130.378906 213.25 127.1875 213.25 123.253906 C 213.25 119.320312 210.058594 116.128906 206.125 116.128906 Z M 163.375 116.128906 C 159.441406 116.128906 156.25 119.320312 156.25 123.253906 C 156.25 127.1875 159.441406 130.378906 163.375 130.378906 C 167.308594 130.378906 170.5 127.1875 170.5 123.253906 C 170.5 119.320312 167.308594 116.128906 163.375 116.128906 "/>
</g>
</g>
</svg>
